<svg width="1200" height="630" viewBox="0 0 1200 630" fill="none" xmlns="http://www.w3.org/2000/svg">
<g clip-path="url(#clip0)">
<rect width="1200" height="630" fill="white"/>
<path d="M1018.5 525C1003.31 525 991 521.194 991 516.5C991 511.806 1003.31 508 1018.5 508C1033.69 508 1046 511.806 1046 516.5C1046 521.194 1033.69 525 1018.5 525Z" fill="black"/>
<path d="M1018 517L1034 585" stroke="black" stroke-width="4" stroke-miterlimit="10" stroke-linecap="round"/>
<path d="M1018 517L1003 585" stroke="black" stroke-width="4" stroke-miterlimit="10" stroke-linecap="round"/>
<path d="M1029 562L1012 547" stroke="black" stroke-width="2" stroke-miterlimit="10" stroke-linecap="round"/>
<path d="M1025 547L1008 562" stroke="black" stroke-width="2" stroke-miterlimit="10" stroke-linecap="round"/>
<path d="M991 443C991.178 446 991.1 456.506 992 461" stroke="#1F161E" stroke-miterlimit="10" stroke-linecap="round"/>
<path d="M1079 217.852C1079 215.725 1080.34 214 1082 214C1083.66 214 1085 215.725 1085 217.852V231.148C1085 233.275 1083.66 235 1082 235C1080.34 235 1079 233.275 1079 231.148V217.852Z" fill="black"/>
<path d="M1081.5 266C1078.46 266 1076 262.642 1076 258.5C1076 254.358 1078.46 251 1081.5 251C1084.54 251 1087 254.358 1087 258.5C1087 262.642 1084.54 266 1081.5 266Z" fill="#FBDC8E"/>
<path d="M1158 344.29L1155.64 345.382C1155.39 345.495 1155.09 345.465 1154.8 345.299C1154.51 345.133 1154.26 344.843 1154.1 344.493L1144.63 324.011C1144.55 323.837 1144.5 323.654 1144.47 323.472C1144.45 323.29 1144.45 323.113 1144.48 322.95L1145.52 317.361C1145.55 317.198 1145.6 317.052 1145.69 316.933C1145.77 316.814 1145.88 316.723 1146 316.666L1154.81 312.592C1155.06 312.478 1155.36 312.508 1155.65 312.675C1155.94 312.841 1156.19 313.131 1156.36 313.48L1157.27 315.457" fill="#FBDC8E"/>
<path d="M1150.87 318.418L1159.52 314.415C1159.66 314.35 1159.82 314.325 1159.98 314.341C1160.14 314.357 1160.31 314.413 1160.47 314.507C1160.63 314.6 1160.79 314.729 1160.92 314.886C1161.06 315.043 1161.18 315.225 1161.27 315.421L1172.5 339.747C1172.69 340.142 1172.75 340.572 1172.68 340.944C1172.62 341.315 1172.42 341.597 1172.14 341.728L1160.58 347.077C1160.3 347.205 1159.95 347.171 1159.63 346.983C1159.3 346.794 1159.01 346.466 1158.83 346.071L1149.49 325.855C1149.4 325.659 1149.34 325.453 1149.31 325.248C1149.28 325.042 1149.28 324.842 1149.31 324.658L1150.33 319.201C1150.39 318.831 1150.59 318.549 1150.87 318.418V318.418Z" fill="#D8D8D8"/>
<path d="M1149.22 325.274L1152.16 323.914C1152.32 323.842 1152.43 323.685 1152.46 323.477C1152.5 323.27 1152.47 323.029 1152.36 322.808L1150.43 318.621" fill="#969696"/>
<path d="M1144.39 323.511L1147.33 322.151C1147.48 322.077 1147.59 321.918 1147.63 321.71C1147.67 321.502 1147.64 321.26 1147.54 321.038L1145.6 316.85" fill="#64CCC4"/>
<path d="M990.315 307H1012.69C1013.41 307 1014 307.829 1014 308.852V319.148C1014 320.171 1013.41 321 1012.69 321H990.315C989.589 321 989 320.171 989 319.148V308.852C989 307.829 989.589 307 990.315 307Z" fill="#78E5E1"/>
<path d="M924 401L921 388H927L924 401Z" fill="#78E5E1"/>
<path d="M1007.5 311L1010 317H1005L1007.5 311Z" fill="white"/>
<path d="M995.5 317L993 311H998L995.5 317Z" fill="white"/>
<path d="M1002 316C1000.9 316 1000 314.881 1000 313.5C1000 312.119 1000.9 311 1002 311C1003.1 311 1004 312.119 1004 313.5C1004 314.881 1003.1 316 1002 316Z" fill="white"/>
<path d="M1068.15 296H1082.85C1083.48 296 1084 296.737 1084 297.646V310.354C1084 311.263 1083.48 312 1082.85 312H1068.15C1067.52 312 1067 311.263 1067 310.354V297.646C1067 296.737 1067.52 296 1068.15 296Z" fill="#D8D8D8"/>
<path d="M1083 297L1075 304" stroke="#969696" stroke-width="0.82" stroke-linecap="round" stroke-linejoin="round"/>
<path d="M1067 296L1075 304" stroke="#969696" stroke-width="0.82" stroke-linecap="round" stroke-linejoin="round"/>
<path d="M1066.5 300C1065.12 300 1064 298.433 1064 296.5C1064 294.567 1065.12 293 1066.5 293C1067.88 293 1069 294.567 1069 296.5C1069 298.433 1067.88 300 1066.5 300Z" fill="#FBDC8E"/>
<path d="M946.402 332H947.065V327.605L948.394 328.093V327.495L946.505 326.785H946.402V332Z" fill="white"/>
<path d="M865.539 272H929.461C929.759 272 930 272.342 930 272.764V273.236C930 273.658 929.759 274 929.461 274H865.539C865.241 274 865 273.658 865 273.236V272.764C865 272.342 865.241 272 865.539 272Z" fill="#D8D8D8"/>
<path d="M902.098 233H905.902C906.508 233 907 233.699 907 234.561V270.439C907 271.301 906.508 272 905.902 272H902.098C901.492 272 901 271.301 901 270.439V234.561C901 233.699 901.492 233 902.098 233Z" fill="#969696"/>
<path d="M898.913 242H900.087C900.591 242 901 242.584 901 243.305V270.695C901 271.416 900.591 272 900.087 272H898.913C898.409 272 898 271.416 898 270.695V243.305C898 242.584 898.409 242 898.913 242Z" fill="#D8D8D8"/>
<path d="M895.883 242H897.117C897.605 242 898 242.565 898 243.263V270.737C898 271.435 897.605 272 897.117 272H895.883C895.395 272 895 271.435 895 270.737V243.263C895 242.565 895.395 242 895.883 242Z" fill="#969696"/>
<path d="M894.056 244.315L895.08 244.979C895.559 245.289 895.769 246.088 895.549 246.764L887.492 271.536C887.272 272.211 886.706 272.508 886.227 272.197L885.203 271.534C884.724 271.223 884.514 270.424 884.734 269.749L892.791 244.977C893.011 244.301 893.577 244.005 894.056 244.315Z" fill="#D8D8D8"/>
<path d="M904.5 262C903.672 262 903 260.881 903 259.5C903 258.119 903.672 257 904.5 257C905.328 257 906 258.119 906 259.5C906 260.881 905.328 262 904.5 262Z" fill="#D8D8D8"/>
<path d="M903.315 264H905.685C905.859 264 906 264.224 906 264.5C906 264.776 905.859 265 905.685 265H903.315C903.141 265 903 264.776 903 264.5C903 264.224 903.141 264 903.315 264Z" fill="#D8D8D8"/>
<path d="M903.315 267H905.685C905.859 267 906 267.224 906 267.5C906 267.776 905.859 268 905.685 268H903.315C903.141 268 903 267.776 903 267.5C903 267.224 903.141 267 903.315 267Z" fill="#D8D8D8"/>
<path d="M1157.04 318.612L1159.82 317.324C1160.03 317.229 1160.3 317.386 1160.43 317.675C1160.57 317.963 1160.51 318.273 1160.3 318.368L1157.52 319.656C1157.31 319.751 1157.04 319.594 1156.91 319.305C1156.77 319.017 1156.83 318.707 1157.04 318.612Z" fill="#969696"/>
<path d="M1158.19 321.122L1160.98 319.834C1161.19 319.739 1161.46 319.896 1161.59 320.185C1161.73 320.473 1161.67 320.783 1161.46 320.878L1158.68 322.166C1158.47 322.261 1158.2 322.104 1158.07 321.815C1157.93 321.527 1157.99 321.217 1158.19 321.122Z" fill="#969696"/>
<path d="M1152.95 328.757L1163.13 324.052C1163.33 323.958 1163.6 324.115 1163.74 324.403C1163.87 324.692 1163.81 325.002 1163.61 325.096L1153.44 329.801C1153.23 329.895 1152.96 329.738 1152.82 329.45C1152.69 329.162 1152.75 328.851 1152.95 328.757Z" fill="#969696"/>
<path d="M1154.09 331.223L1164.26 326.518C1164.47 326.424 1164.74 326.581 1164.88 326.869C1165.01 327.158 1164.95 327.468 1164.75 327.562L1154.58 332.267C1154.37 332.361 1154.1 332.204 1153.96 331.916C1153.83 331.628 1153.89 331.317 1154.09 331.223Z" fill="#969696"/>
<path d="M1155.23 333.689L1165.4 328.984C1165.61 328.89 1165.88 329.047 1166.01 329.335C1166.15 329.624 1166.09 329.934 1165.89 330.028L1155.71 334.733C1155.51 334.827 1155.24 334.67 1155.1 334.382C1154.97 334.094 1155.03 333.783 1155.23 333.689Z" fill="#969696"/>
<path d="M913.108 273H915.892C916.504 273 917 273.672 917 274.5C917 275.328 916.504 276 915.892 276H913.108C912.496 276 912 275.328 912 274.5C912 273.672 912.496 273 913.108 273Z" fill="#D8D8D8"/>
<path d="M879.886 273H882.114C882.603 273 883 273.672 883 274.5C883 275.328 882.603 276 882.114 276H879.886C879.397 276 879 275.328 879 274.5C879 273.672 879.397 273 879.886 273Z" fill="#D8D8D8"/>
<path d="M1100.35 345H1116.65C1119.6 345 1122 348.341 1122 352.462V363.538C1122 367.659 1119.6 371 1116.65 371H1100.35C1097.4 371 1095 367.659 1095 363.538V352.462C1095 348.341 1097.4 345 1100.35 345Z" fill="#D8D8D8"/>
<path d="M1112 349H1116V366H1112V349Z" fill="#AB8DE5"/>
<path d="M1106 361H1110V366H1106V361Z" fill="#AB8DE5"/>
<path d="M1101 356H1105V366H1101V356Z" fill="#AB8DE5"/>
<path d="M1082 235C1084.23 234.999 1086.44 235.594 1088.51 236.749C1090.57 237.905 1092.44 239.599 1094.02 241.734C1095.6 243.87 1096.85 246.406 1097.71 249.197C1098.56 251.988 1099 254.979 1099 258H1065C1065 254.979 1065.44 251.988 1066.29 249.197C1067.15 246.406 1068.4 243.87 1069.98 241.734C1071.56 239.599 1073.43 237.905 1075.49 236.749C1077.56 235.594 1079.77 234.999 1082 235Z" fill="#AB8DE5"/>
<path d="M1082 214V0" stroke="black" stroke-width="2" stroke-linecap="round" stroke-linejoin="round"/>
<path d="M951.853 577C951.853 578.405 952.439 587.267 951.27 588.085C950.101 588.903 937.251 589.401 936.669 588.577C936.087 587.753 935.736 586.034 936.247 585.542C936.758 585.05 941.733 583.657 942.408 582.999C943.084 582.341 944.016 578.85 943.674 577" fill="#1F161E"/>
<path d="M991.422 456.738L984 452.992C984.32 433.946 987.486 391.391 991.98 385.062C993.037 383.582 1013.93 381 1017.66 381C1039.91 381 1046.51 384.569 1048.18 386.932C1053.38 394.241 1055 428.105 1055 439.964C1055 451.822 1031.18 457.974 1031.18 457.974L1003.27 460.672C1003.27 460.672 997.146 461.561 991.85 462C991.733 459.716 991.422 456.738 991.422 456.738Z" fill="#78E5E1"/>
<path d="M969 468.497C966.963 467.646 946.711 462.988 942.299 469.109C937.887 475.229 924 562.98 924 565H935.182L950.276 519.212" fill="#1F161E"/>
<path d="M1042.46 460.624C1042.97 464.195 1046 468.029 1046 487.486C1046 514.391 1030.43 514.959 1024.84 514.959C1007.42 514.959 979.245 507.633 977.342 506.29C976.079 509.281 952.818 576.498 952.71 578H942C942 578 948.638 477.437 960.616 466.033C964.506 462.37 1033.53 458.45 1042.46 460.624Z" fill="#55B79D"/>
<path d="M979.907 441C982.782 441 985.154 441.948 991.661 443.723L992 461C985.828 457.549 984.395 452.753 982.605 452.753C978.135 452.753 975.799 455.953 973.158 455.953C971.315 455.953 968 453.946 968 451.217C968 445.503 976.345 441 979.907 441Z" fill="#F8CDBA"/>
<path d="M934.853 563C934.853 564.528 935.439 574.118 934.27 575.011C933.101 575.903 920.251 576.429 919.669 575.543C919.087 574.658 918.736 572.79 919.247 572.257C919.758 571.724 924.733 570.209 925.408 569.496C926.084 568.784 927.016 565.003 926.674 563" fill="#1F161E"/>
<path d="M1014 385.203C1014 387.564 1023 387.633 1023 385.203V366H1014V385.203Z" fill="#F8CDBA"/>
<path d="M1017 372.718C1017.81 372.718 1023 376.107 1023 378V368C1021.71 368 1017 372.718 1017 372.718Z" fill="#1F161E"/>
<path d="M1015 373C1008.92 373 1004 365.837 1004 357C1004 348.163 1008.92 341 1015 341C1021.08 341 1026 348.163 1026 357C1026 365.837 1021.08 373 1015 373Z" fill="#F8CDBA"/>
<path d="M1003.13 344.282C1004.54 347.488 1007.49 348.958 1010.69 348.958C1013.42 348.958 1017.39 347.826 1020.21 350.127C1021.74 351.358 1023.49 354.158 1023.85 359.764C1023.85 360.724 1024.61 364.446 1024.61 365.646C1024.61 366.465 1025.25 367 1026.33 367C1026.89 367 1027.98 365.714 1027.98 363.751C1027.98 361.48 1027.35 360.674 1027.35 358.748C1027.35 356.822 1029 354.97 1029 349.617C1029 341.907 1025.56 337.156 1023.12 337.156C1020.9 337.156 1020.2 337.895 1019.92 338.208C1019.92 331.2 1013.46 328 1010.9 328C1007.97 328 1006.59 329.717 1006.59 331.901C1006.59 335.384 1007.76 338.344 1008.35 339.008C1007.01 337.292 1005.28 336.346 1003.48 336.356C1000.13 336.356 999 339.507 999 341.66C999 346.343 1002.93 350.681 1004.39 350.681C1004.76 349.568 1005.19 348.5 1005.69 347.488" fill="#1F161E"/>
<path d="M1023.5 363C1022.12 363 1021 361.433 1021 359.5C1021 357.567 1022.12 356 1023.5 356C1024.88 356 1026 357.567 1026 359.5C1026 361.433 1024.88 363 1023.5 363Z" fill="#F8CDBA"/>
<path d="M1003 360C1001.9 360 1001 359.328 1001 358.5C1001 357.672 1001.9 357 1003 357C1004.1 357 1005 357.672 1005 358.5C1005 359.328 1004.1 360 1003 360Z" fill="#FA9E9F"/>
<path d="M1015 360C1013.9 360 1013 359.328 1013 358.5C1013 357.672 1013.9 357 1015 357C1016.1 357 1017 357.672 1017 358.5C1017 359.328 1016.1 360 1015 360Z" fill="#FA9E9F"/>
<path d="M1008 356C1007.68 356.725 1006.06 359.767 1007.77 361" stroke="#1F161E" stroke-miterlimit="10" stroke-linecap="round"/>
<path d="M1012 364C1012.6 364 1013.52 362.945 1014 362" stroke="#1F161E" stroke-miterlimit="10" stroke-linecap="round"/>
<path d="M996 408C995.142 410.554 991 435.194 991 443" stroke="#1F161E" stroke-miterlimit="10" stroke-linecap="round"/>
<path d="M1055 438C1055 466.68 1054.81 475 1046.79 475C1028.3 475 1000.35 453.221 995.366 453.221C990.965 453.221 988.667 456.481 986.069 456.481C984.261 456.481 981 454.434 981 451.665C981 445.847 989.209 441.267 992.708 441.267C1000.59 441.267 1032.03 452.169 1032.8 452.169C1033.57 452.169 1034.86 451.69 1034.86 449.836C1034.86 446.469 1033.32 438.691 1033.12 438.012L1055 438Z" fill="#F8CDBA"/>
<path d="M1029 414C1029.52 416.144 1033.54 438.3 1034 441" stroke="#1F161E" stroke-miterlimit="10" stroke-linecap="round"/>
<path d="M872.068 585.223C871.757 586.896 870.543 587.896 869.357 587.456C868.172 587.016 867.464 585.303 867.775 583.63L889.969 464.477C890.281 462.804 891.494 461.804 892.68 462.244C893.865 462.684 894.574 464.397 894.262 466.071L872.068 585.223Z" fill="#969696"/>
<path d="M894.482 466.075C894.171 464.402 894.879 462.689 896.064 462.249C897.25 461.809 898.464 462.809 898.775 464.482L920.969 583.635C921.281 585.308 920.572 587.021 919.387 587.461C918.201 587.901 916.988 586.901 916.676 585.228L894.482 466.075Z" fill="#969696"/>
<path d="M925.107 466.075C924.795 464.402 925.504 462.689 926.689 462.249C927.875 461.809 929.088 462.809 929.4 464.482L951.594 583.634C951.905 585.308 951.197 587.021 950.012 587.46C948.826 587.9 947.612 586.901 947.301 585.227L925.107 466.075Z" fill="#D8D8D8"/>
<path d="M903.079 583.024C902.772 584.702 901.56 585.712 900.371 585.279C899.182 584.847 898.467 583.136 898.773 581.457L920.595 461.952C920.901 460.274 922.113 459.264 923.302 459.696C924.491 460.129 925.207 461.84 924.9 463.518L903.079 583.024Z" fill="#D8D8D8"/>
<path d="M1050.13 466.078C1049.82 464.405 1050.53 462.692 1051.71 462.252C1052.9 461.812 1054.11 462.812 1054.43 464.485L1076.62 583.637C1076.93 585.311 1076.22 587.024 1075.04 587.464C1073.85 587.903 1072.64 586.904 1072.33 585.23L1050.13 466.078Z" fill="#969696"/>
<path d="M1028.1 585.231C1027.78 586.904 1026.57 587.904 1025.38 587.464C1024.2 587.024 1023.49 585.311 1023.8 583.638L1046 464.485C1046.31 462.812 1047.52 461.812 1048.71 462.252C1049.89 462.692 1050.6 464.405 1050.29 466.078L1028.1 585.231Z" fill="#969696"/>
<path d="M880.958 456H1095.04C1096.12 456 1097 457.339 1097 458.99V463.01C1097 464.661 1096.12 466 1095.04 466H880.958C879.877 466 879 464.661 879 463.01V458.99C879 457.339 879.877 456 880.958 456Z" fill="#D8D8D8"/>
<path d="M1081.85 466.08C1081.54 464.407 1082.25 462.693 1083.43 462.254C1084.62 461.814 1085.83 462.813 1086.15 464.487L1108.34 583.639C1108.65 585.312 1107.94 587.025 1106.76 587.465C1105.57 587.905 1104.36 586.905 1104.05 585.232L1081.85 466.08Z" fill="#D8D8D8"/>
<path d="M1059.82 585.231C1059.5 586.904 1058.29 587.904 1057.1 587.464C1055.92 587.024 1055.21 585.311 1055.52 583.638L1077.72 464.485C1078.03 462.812 1079.24 461.812 1080.43 462.252C1081.61 462.692 1082.32 464.405 1082.01 466.078L1059.82 585.231Z" fill="#D8D8D8"/>
<path d="M936.914 456H977L969.738 420.916C969.556 420.07 969.185 419.328 968.679 418.803C968.173 418.277 967.559 417.996 966.93 418.001H932.915C932.468 417.99 932.026 418.127 931.623 418.4C931.221 418.672 930.869 419.073 930.596 419.57C930.324 420.067 930.137 420.647 930.052 421.263C929.967 421.88 929.986 422.515 930.107 423.119L936.914 456Z" fill="black"/>
<path d="M951.5 441C950.119 441 949 439.433 949 437.5C949 435.567 950.119 434 951.5 434C952.881 434 954 435.567 954 437.5C954 439.433 952.881 441 951.5 441Z" fill="white"/>
<path d="M972 454H1000V456H972V454Z" fill="black"/>
<g clip-path="url(#clip1)">
<path d="M1173.93 232.122H1171.91V241.947H1173.93C1174.52 241.947 1175 241.652 1175 241.29V232.778C1175 232.417 1174.52 232.122 1173.93 232.122Z" fill="#AB91DF"/>
<path d="M1173.93 244.954H1171.91V251.876H1173.93C1174.52 251.876 1175 251.668 1175 251.413V245.417C1175 245.166 1174.52 244.954 1173.93 244.954Z" fill="#AB91DF"/>
<path d="M1163.99 271.92L1165.36 269.863H1131.7L1133.06 271.92C1134.08 273.436 1134.62 275.158 1134.62 276.911V276.911C1134.62 279.722 1137.65 282.002 1141.37 282.002H1155.68C1159.41 282.002 1162.43 279.724 1162.43 276.911C1162.44 275.158 1162.98 273.437 1163.99 271.92V271.92Z" fill="#FADB93"/>
<path d="M1163.74 222.08L1165.1 224.137H1131.45L1132.81 222.08C1133.83 220.564 1134.37 218.843 1134.38 217.091V217.091C1134.38 214.28 1137.4 212 1141.13 212H1155.43C1159.16 212 1162.18 214.278 1162.18 217.091C1162.19 218.843 1162.72 220.564 1163.74 222.08Z" fill="#FADB93"/>
<path d="M1165.56 224.137H1131.49C1127.99 224.137 1125.15 226.596 1125.15 229.629V264.371C1125.15 267.404 1127.99 269.863 1131.49 269.863H1165.56C1169.07 269.863 1171.91 267.404 1171.91 264.371V229.629C1171.91 226.596 1169.07 224.137 1165.56 224.137Z" stroke="black" stroke-width="3.34" stroke-miterlimit="10"/>
<path d="M1165.01 226.484H1131.9C1129.42 226.484 1127.4 228.228 1127.4 230.38V263.62C1127.4 265.771 1129.42 267.516 1131.9 267.516H1165.01C1167.5 267.516 1169.51 265.771 1169.51 263.62V230.38C1169.51 228.228 1167.5 226.484 1165.01 226.484Z" fill="#E2E2E2"/>
<path d="M1148.46 257.547C1155.19 257.547 1160.64 252.825 1160.64 247C1160.64 241.175 1155.19 236.453 1148.46 236.453C1141.73 236.453 1136.27 241.175 1136.27 247C1136.27 252.825 1141.73 257.547 1148.46 257.547Z" fill="#78E5E1"/>
<path d="M1144.21 261.659C1144.55 261.659 1144.82 261.422 1144.82 261.129C1144.82 260.835 1144.55 260.598 1144.21 260.598C1143.87 260.598 1143.6 260.835 1143.6 261.129C1143.6 261.422 1143.87 261.659 1144.21 261.659Z" fill="white"/>
<path d="M1145.94 261.659C1146.28 261.659 1146.55 261.422 1146.55 261.129C1146.55 260.835 1146.28 260.598 1145.94 260.598C1145.6 260.598 1145.32 260.835 1145.32 261.129C1145.32 261.422 1145.6 261.659 1145.94 261.659Z" fill="white"/>
<path d="M1147.66 261.659C1148 261.659 1148.28 261.422 1148.28 261.129C1148.28 260.835 1148 260.598 1147.66 260.598C1147.33 260.598 1147.05 260.835 1147.05 261.129C1147.05 261.422 1147.33 261.659 1147.66 261.659Z" fill="white"/>
<path d="M1149.39 261.659C1149.73 261.659 1150 261.422 1150 261.129C1150 260.835 1149.73 260.598 1149.39 260.598C1149.05 260.598 1148.78 260.835 1148.78 261.129C1148.78 261.422 1149.05 261.659 1149.39 261.659Z" fill="white"/>
<path d="M1151.12 261.659C1151.46 261.659 1151.73 261.422 1151.73 261.129C1151.73 260.835 1151.46 260.598 1151.12 260.598C1150.78 260.598 1150.51 260.835 1150.51 261.129C1150.51 261.422 1150.78 261.659 1151.12 261.659Z" fill="white"/>
<path d="M1152.85 261.659C1153.19 261.659 1153.46 261.422 1153.46 261.129C1153.46 260.835 1153.19 260.598 1152.85 260.598C1152.51 260.598 1152.23 260.835 1152.23 261.129C1152.23 261.422 1152.51 261.659 1152.85 261.659Z" fill="white"/>
<path d="M1150.86 245.781L1148.44 244.589L1146.04 245.808L1146.05 248.219L1148.47 249.412L1150.88 248.193L1150.86 245.781Z" stroke="black" stroke-width="0.63" stroke-miterlimit="10"/>
<path d="M1148.53 247V230.65" stroke="black" stroke-width="0.63" stroke-miterlimit="10"/>
<path d="M1148.53 247H1167.42" stroke="black" stroke-width="0.63" stroke-miterlimit="10"/>
</g>
<path d="M1149.27 560.595C1157.55 560.595 1164.26 558.895 1164.26 556.798C1164.26 554.7 1157.55 553 1149.27 553C1140.99 553 1134.28 554.7 1134.28 556.798C1134.28 558.895 1140.99 560.595 1149.27 560.595Z" fill="black"/>
<path d="M1149.27 556.798L1140.85 587" stroke="black" stroke-width="4" stroke-miterlimit="10" stroke-linecap="round"/>
<path d="M1149.27 556.798L1157.69 587" stroke="black" stroke-width="4" stroke-miterlimit="10" stroke-linecap="round"/>
<path d="M1143.62 577.085L1153.01 570.187" stroke="black" stroke-width="2" stroke-miterlimit="10" stroke-linecap="round"/>
<path d="M1145.5 570.187L1154.89 577.085" stroke="black" stroke-width="2" stroke-miterlimit="10" stroke-linecap="round"/>
<path d="M1140.05 456.081C1131.62 458.295 1133.12 528.035 1149.3 523.816C1164.58 519.794 1150.33 453.369 1140.05 456.081Z" fill="black"/>
<path d="M1175.97 464.393C1169.34 459.153 1141.59 507.9 1154.28 517.927C1166.27 527.438 1184.04 470.783 1175.97 464.393Z" fill="#FBDC8E"/>
<path d="M1142.7 557H1159.21C1159.88 557 1160.52 556.654 1161.01 556.03C1161.51 555.405 1161.82 554.545 1161.9 553.615L1163.98 527.262C1164.03 526.728 1163.99 526.186 1163.88 525.672C1163.76 525.158 1163.57 524.685 1163.32 524.282C1163.06 523.879 1162.75 523.557 1162.4 523.336C1162.06 523.115 1161.68 523.001 1161.3 523H1140.7C1140.32 523 1139.95 523.113 1139.6 523.331C1139.25 523.549 1138.94 523.866 1138.69 524.264C1138.44 524.661 1138.25 525.129 1138.13 525.637C1138.01 526.146 1137.97 526.683 1138.02 527.213L1140.01 553.566C1140.08 554.506 1140.39 555.378 1140.88 556.012C1141.38 556.647 1142.03 556.999 1142.7 557Z" fill="#969696"/>
<path d="M1135.68 429.143C1129.59 431.73 1134.25 485.642 1145.9 480.677C1156.9 475.996 1143.08 425.989 1135.68 429.143Z" fill="#AB8DE5"/>
<path d="M1124.68 471.835C1120.32 477.117 1138.05 517.519 1146.43 507.372C1154.34 497.832 1130 465.414 1124.68 471.835Z" fill="#FBDC8E"/>
<path d="M1150.87 435C1141.16 435 1132.26 519 1150.87 519C1168.44 519 1162.7 435 1150.87 435Z" fill="#78E5E1"/>
<path d="M1134.73 517H1167.27C1168.23 517 1169 518.171 1169 519.616V524.384C1169 525.829 1168.23 527 1167.27 527H1134.73C1133.77 527 1133 525.829 1133 524.384V519.616C1133 518.171 1133.77 517 1134.73 517Z" fill="#D8D8D8"/>
<path d="M1073.26 438.38V439.103H1077.52V438.38C1077.52 438.17 1077.39 438 1077.23 438H1073.54C1073.38 438 1073.26 438.172 1073.26 438.38Z" fill="#AB91DF"/>
<path d="M1077.96 438.38V439.103H1078.86V438.38C1078.86 438.17 1078.83 438 1078.8 438H1078.02C1077.99 438 1077.96 438.172 1077.96 438.38Z" fill="#AB91DF"/>
<path d="M1089.81 439.092H1072.6C1071.89 439.092 1071.32 439.636 1071.32 440.307V456.681C1071.32 457.352 1071.89 457.895 1072.6 457.895H1089.81C1090.52 457.895 1091.09 457.352 1091.09 456.681V440.307C1091.09 439.636 1090.52 439.092 1089.81 439.092Z" stroke="black" stroke-width="2.19" stroke-miterlimit="10"/>
<path d="M1081.21 456.227C1085.7 456.227 1089.34 452.765 1089.34 448.494C1089.34 444.223 1085.7 440.761 1081.21 440.761C1076.72 440.761 1073.08 444.223 1073.08 448.494C1073.08 452.765 1076.72 456.227 1081.21 456.227Z" fill="#78E5E1"/>
<path d="M1082.41 447.843L1081.19 447.183L1079.98 447.858L1079.99 449.192L1081.21 449.851L1082.42 449.177L1082.41 447.843Z" stroke="white" stroke-width="2" stroke-miterlimit="10" stroke-linecap="round"/>
<path d="M1081.23 448.518V440.089" stroke="white" stroke-width="2" stroke-miterlimit="10" stroke-linecap="round"/>
<path d="M1081.23 448.518H1086.85" stroke="white" stroke-width="2" stroke-miterlimit="10" stroke-linecap="round"/>
<path d="M1074.27 448.779C1074.43 448.779 1074.57 448.651 1074.57 448.494C1074.57 448.337 1074.43 448.209 1074.27 448.209C1074.1 448.209 1073.97 448.337 1073.97 448.494C1073.97 448.651 1074.1 448.779 1074.27 448.779Z" fill="white"/>
<path d="M1088.13 448.779C1088.29 448.779 1088.43 448.651 1088.43 448.494C1088.43 448.337 1088.29 448.209 1088.13 448.209C1087.96 448.209 1087.83 448.337 1087.83 448.494C1087.83 448.651 1087.96 448.779 1088.13 448.779Z" fill="white"/>
<path d="M1081.2 455.569C1081.36 455.569 1081.5 455.441 1081.5 455.284C1081.5 455.127 1081.36 454.999 1081.2 454.999C1081.03 454.999 1080.9 455.127 1080.9 455.284C1080.9 455.441 1081.03 455.569 1081.2 455.569Z" fill="white"/>
<path d="M1081.2 441.884C1081.36 441.884 1081.5 441.757 1081.5 441.599C1081.5 441.442 1081.36 441.314 1081.2 441.314C1081.03 441.314 1080.9 441.442 1080.9 441.599C1080.9 441.757 1081.03 441.884 1081.2 441.884Z" fill="white"/>
<g clip-path="url(#clip2)">
<path d="M771.526 539.82L768.531 534.956C767.997 534.088 767.957 532.964 768.422 531.83C768.886 530.697 769.816 529.648 771.007 528.913L837.75 487.769C838.942 487.035 840.296 486.675 841.517 486.77C842.737 486.865 843.723 487.406 844.258 488.274L847.253 493.138C846.158 493.813 845.304 494.776 844.877 495.817C844.451 496.858 844.487 497.891 844.978 498.689C845.469 499.487 846.375 499.984 847.496 500.071C848.617 500.158 849.862 499.828 850.956 499.153L859.016 512.245L810.22 542.326L808.064 538.825L805.001 540.714L807.157 544.214L783.29 558.927L775.229 545.835C776.3 545.154 777.129 544.196 777.539 543.168C777.949 542.139 777.908 541.122 777.423 540.334C776.938 539.547 776.049 539.052 774.946 538.956C773.844 538.86 772.616 539.17 771.526 539.82" fill="#DBDBDB"/>
<path d="M848.876 501.152C847.601 501.939 846.15 502.324 844.843 502.222C843.536 502.121 842.48 501.541 841.907 500.611C841.335 499.682 841.292 498.477 841.79 497.263C842.287 496.05 843.283 494.926 844.559 494.14L842.012 490.003C841.702 489.5 841.129 489.186 840.421 489.131C839.713 489.076 838.927 489.284 838.236 489.71L771.993 530.546C771.301 530.973 770.762 531.581 770.492 532.239C770.223 532.897 770.246 533.549 770.556 534.053L773.106 538.196L773.143 538.173C774.419 537.386 775.87 537.001 777.177 537.103C778.484 537.204 779.54 537.784 780.113 538.713C780.685 539.643 780.728 540.848 780.23 542.061C779.733 543.275 778.737 544.399 777.461 545.185L777.424 545.208L784.412 556.559L805.001 543.867L803.135 540.836L808.96 537.245L810.825 540.275L855.868 512.508L848.876 501.152Z" fill="#AE95F8"/>
<path d="M774.841 533.66C775.551 533.222 775.869 532.448 775.55 531.93C775.231 531.412 774.397 531.347 773.686 531.785C772.976 532.223 772.658 532.998 772.977 533.516C773.296 534.034 774.13 534.098 774.841 533.66Z" fill="#7FE3DE"/>
<path d="M839.537 493.778C840.247 493.34 840.565 492.565 840.246 492.047C839.927 491.529 839.093 491.465 838.382 491.903C837.672 492.341 837.354 493.115 837.673 493.633C837.992 494.151 838.826 494.216 839.537 493.778Z" fill="#7FE3DE"/>
<path d="M787.196 550.979C787.014 550.683 786.537 550.646 786.131 550.897C785.726 551.147 785.544 551.589 785.727 551.885L787.333 554.495C787.516 554.791 787.992 554.828 788.398 554.577C788.803 554.327 788.985 553.885 788.803 553.589L787.196 550.979Z" fill="#F7D999"/>
<path d="M789.845 549.346C789.662 549.05 789.186 549.013 788.78 549.263C788.375 549.514 788.193 549.956 788.375 550.252L789.982 552.862C790.164 553.158 790.641 553.195 791.047 552.944C791.452 552.694 791.634 552.252 791.452 551.956L789.845 549.346Z" fill="#F7D999"/>
<path d="M792.493 547.713C792.311 547.418 791.835 547.381 791.429 547.631C791.023 547.881 790.842 548.323 791.024 548.619L792.631 551.229C792.813 551.525 793.29 551.562 793.695 551.312C794.101 551.062 794.282 550.619 794.1 550.323L792.493 547.713Z" fill="#F7D999"/>
<path d="M795.144 546.079C794.962 545.784 794.485 545.747 794.079 545.997C793.674 546.247 793.492 546.689 793.675 546.985L795.281 549.595C795.464 549.891 795.94 549.928 796.346 549.678C796.752 549.428 796.933 548.985 796.751 548.69L795.144 546.079Z" fill="#F7D999"/>
<path d="M797.793 544.446C797.61 544.151 797.134 544.114 796.728 544.364C796.323 544.614 796.141 545.056 796.323 545.352L797.93 547.962C798.112 548.258 798.589 548.295 798.995 548.045C799.4 547.795 799.582 547.352 799.4 547.056L797.793 544.446Z" fill="#F7D999"/>
<path d="M800.443 542.813C800.261 542.517 799.784 542.48 799.379 542.73C798.973 542.98 798.792 543.423 798.974 543.718L800.581 546.328C800.763 546.624 801.239 546.661 801.645 546.411C802.051 546.161 802.232 545.718 802.05 545.423L800.443 542.813Z" fill="#F7D999"/>
<path d="M813.69 534.646C813.508 534.35 813.032 534.313 812.626 534.563C812.22 534.814 812.039 535.256 812.221 535.552L813.828 538.162C814.01 538.458 814.487 538.495 814.892 538.244C815.298 537.994 815.479 537.552 815.297 537.256L813.69 534.646Z" fill="#F7D999"/>
<path d="M816.339 533.013C816.157 532.718 815.68 532.681 815.275 532.931C814.869 533.181 814.688 533.623 814.87 533.919L816.477 536.529C816.659 536.825 817.135 536.862 817.541 536.612C817.947 536.362 818.128 535.919 817.946 535.623L816.339 533.013Z" fill="#F7D999"/>
<path d="M818.988 531.38C818.806 531.085 818.329 531.048 817.924 531.298C817.518 531.548 817.337 531.99 817.519 532.286L819.126 534.896C819.308 535.192 819.784 535.229 820.19 534.979C820.596 534.729 820.777 534.286 820.595 533.991L818.988 531.38Z" fill="#F7D999"/>
<path d="M821.638 529.746C821.456 529.451 820.98 529.414 820.574 529.664C820.168 529.914 819.987 530.356 820.169 530.652L821.776 533.262C821.958 533.558 822.435 533.595 822.84 533.345C823.246 533.095 823.427 532.652 823.245 532.357L821.638 529.746Z" fill="#F7D999"/>
<path d="M824.287 528.114C824.105 527.818 823.628 527.781 823.223 528.031C822.817 528.281 822.636 528.724 822.818 529.019L824.425 531.629C824.607 531.925 825.083 531.962 825.489 531.712C825.895 531.462 826.076 531.019 825.894 530.724L824.287 528.114Z" fill="#F7D999"/>
<path d="M826.938 526.48C826.756 526.184 826.279 526.147 825.873 526.397C825.468 526.647 825.286 527.09 825.468 527.385L827.075 529.995C827.257 530.291 827.734 530.328 828.14 530.078C828.545 529.828 828.727 529.385 828.545 529.09L826.938 526.48Z" fill="#F7D999"/>
<path d="M829.586 524.847C829.404 524.551 828.928 524.514 828.522 524.764C828.116 525.014 827.935 525.457 828.117 525.753L829.724 528.363C829.906 528.658 830.383 528.695 830.788 528.445C831.194 528.195 831.375 527.753 831.193 527.457L829.586 524.847Z" fill="#F7D999"/>
<path d="M832.235 523.214C832.053 522.918 831.577 522.881 831.171 523.131C830.765 523.381 830.584 523.824 830.766 524.12L832.373 526.73C832.555 527.025 833.031 527.062 833.437 526.812C833.843 526.562 834.024 526.12 833.842 525.824L832.235 523.214Z" fill="#F7D999"/>
<path d="M834.886 521.58C834.703 521.284 834.227 521.247 833.821 521.497C833.416 521.747 833.234 522.19 833.416 522.486L835.023 525.096C835.205 525.391 835.682 525.428 836.088 525.178C836.493 524.928 836.675 524.486 836.493 524.19L834.886 521.58Z" fill="#F7D999"/>
<path d="M837.534 519.947C837.352 519.651 836.876 519.614 836.47 519.865C836.064 520.115 835.883 520.557 836.065 520.853L837.672 523.463C837.854 523.759 838.331 523.796 838.736 523.546C839.142 523.295 839.323 522.853 839.141 522.557L837.534 519.947Z" fill="#F7D999"/>
<path d="M840.185 518.313C840.003 518.018 839.526 517.981 839.12 518.231C838.715 518.481 838.533 518.923 838.716 519.219L840.323 521.829C840.505 522.125 840.981 522.162 841.387 521.912C841.793 521.662 841.974 521.219 841.792 520.923L840.185 518.313Z" fill="#F7D999"/>
<path d="M842.834 516.68C842.652 516.385 842.175 516.348 841.769 516.598C841.364 516.848 841.182 517.29 841.364 517.586L842.971 520.196C843.154 520.492 843.63 520.529 844.036 520.279C844.441 520.029 844.623 519.586 844.441 519.29L842.834 516.68Z" fill="#F7D999"/>
<path d="M845.482 515.047C845.3 514.752 844.824 514.715 844.418 514.965C844.012 515.215 843.831 515.657 844.013 515.953L845.62 518.563C845.802 518.859 846.279 518.896 846.684 518.646C847.09 518.396 847.271 517.953 847.089 517.658L845.482 515.047Z" fill="#F7D999"/>
<path d="M848.133 513.414C847.951 513.118 847.474 513.081 847.069 513.331C846.663 513.581 846.482 514.024 846.664 514.319L848.271 516.929C848.453 517.225 848.929 517.262 849.335 517.012C849.741 516.762 849.922 516.319 849.74 516.024L848.133 513.414Z" fill="#F7D999"/>
<path d="M850.782 511.781C850.6 511.485 850.123 511.448 849.717 511.698C849.312 511.948 849.13 512.391 849.312 512.687L850.919 515.297C851.102 515.592 851.578 515.629 851.984 515.379C852.389 515.129 852.571 514.687 852.389 514.391L850.782 511.781Z" fill="#F7D999"/>
<path d="M851.798 505.897L780.341 549.947L781.629 552.038L853.085 507.988L851.798 505.897Z" fill="#DBDBDB"/>
<path d="M788.095 526.629L784.902 528.597C783.915 529.205 783.474 530.282 783.917 531.002L788.061 537.733C788.504 538.453 789.664 538.543 790.651 537.934L793.844 535.966C794.831 535.357 795.273 534.28 794.829 533.561L790.685 526.83C790.242 526.11 789.082 526.02 788.095 526.629Z" fill="#F1F1F1"/>
<path d="M802.47 517.767L799.277 519.735C798.29 520.344 797.849 521.421 798.292 522.141L802.436 528.872C802.879 529.591 804.039 529.681 805.026 529.073L808.219 527.105C809.206 526.496 809.648 525.419 809.204 524.699L805.06 517.968C804.617 517.248 803.457 517.158 802.47 517.767Z" fill="#F1F1F1"/>
<path d="M816.845 508.905L813.653 510.873C812.665 511.482 812.224 512.559 812.667 513.279L816.811 520.01C817.254 520.73 818.414 520.82 819.402 520.211L822.594 518.243C823.582 517.634 824.023 516.557 823.58 515.837L819.435 509.106C818.992 508.387 817.833 508.297 816.845 508.905Z" fill="#F1F1F1"/>
<path d="M831.22 500.044L828.028 502.012C827.04 502.621 826.599 503.698 827.042 504.417L831.186 511.148C831.629 511.868 832.789 511.958 833.777 511.349L836.969 509.381C837.956 508.773 838.398 507.696 837.955 506.976L833.81 500.245C833.367 499.525 832.208 499.435 831.22 500.044Z" fill="#F1F1F1"/>
<path d="M788.844 528.564L786.291 530.138L789.9 535.999L792.453 534.425L788.844 528.564Z" fill="#7FE3DE"/>
<path d="M803.219 519.702L800.666 521.276L804.275 527.138L806.828 525.564L803.219 519.702Z" fill="#7FE3DE"/>
<path d="M817.594 510.84L815.041 512.414L818.65 518.276L821.203 516.702L817.594 510.84Z" fill="#7FE3DE"/>
<path d="M831.969 501.978L829.416 503.552L833.025 509.414L835.578 507.84L831.969 501.978Z" fill="#7FE3DE"/>
<path d="M784.67 532.225C785.125 531.945 785.328 531.449 785.124 531.117C784.92 530.786 784.385 530.744 783.931 531.025C783.476 531.305 783.272 531.801 783.477 532.133C783.681 532.464 784.215 532.506 784.67 532.225Z" fill="#F1F1F1"/>
<path d="M788.163 537.898C788.617 537.618 788.821 537.122 788.617 536.79C788.412 536.459 787.878 536.417 787.423 536.698C786.968 536.978 786.765 537.474 786.969 537.806C787.173 538.137 787.708 538.179 788.163 537.898Z" fill="#F1F1F1"/>
<path d="M786.416 535.062C786.871 534.781 787.074 534.285 786.87 533.954C786.666 533.622 786.132 533.581 785.677 533.861C785.222 534.142 785.019 534.638 785.223 534.969C785.427 535.301 785.961 535.342 786.416 535.062Z" fill="#F1F1F1"/>
<path d="M791.437 528.054C791.891 527.774 792.095 527.278 791.891 526.946C791.686 526.614 791.152 526.573 790.697 526.853C790.243 527.134 790.039 527.63 790.243 527.961C790.448 528.293 790.982 528.334 791.437 528.054Z" fill="#F1F1F1"/>
<path d="M794.929 533.727C795.384 533.446 795.588 532.95 795.383 532.619C795.179 532.287 794.645 532.246 794.19 532.526C793.735 532.807 793.532 533.303 793.736 533.634C793.94 533.966 794.475 534.007 794.929 533.727Z" fill="#F1F1F1"/>
<path d="M793.183 530.89C793.638 530.61 793.841 530.114 793.637 529.782C793.433 529.451 792.899 529.409 792.444 529.69C791.989 529.97 791.786 530.466 791.99 530.798C792.194 531.129 792.728 531.171 793.183 530.89Z" fill="#F1F1F1"/>
<path d="M799.045 523.364C799.5 523.083 799.703 522.587 799.499 522.256C799.295 521.924 798.761 521.883 798.306 522.163C797.851 522.443 797.648 522.939 797.852 523.271C798.056 523.603 798.59 523.644 799.045 523.364Z" fill="#F1F1F1"/>
<path d="M802.538 529.037C802.993 528.756 803.196 528.26 802.992 527.929C802.788 527.597 802.253 527.556 801.798 527.836C801.344 528.116 801.14 528.613 801.344 528.944C801.549 529.276 802.083 529.317 802.538 529.037Z" fill="#F1F1F1"/>
<path d="M800.791 526.2C801.246 525.92 801.449 525.424 801.245 525.092C801.041 524.761 800.507 524.719 800.052 525C799.597 525.28 799.394 525.776 799.598 526.108C799.802 526.439 800.336 526.481 800.791 526.2Z" fill="#F1F1F1"/>
<path d="M805.812 519.192C806.267 518.912 806.47 518.416 806.266 518.084C806.062 517.753 805.527 517.711 805.073 517.992C804.618 518.272 804.414 518.768 804.619 519.1C804.823 519.431 805.357 519.473 805.812 519.192Z" fill="#F1F1F1"/>
<path d="M809.305 524.865C809.759 524.585 809.963 524.089 809.759 523.757C809.554 523.426 809.02 523.384 808.565 523.665C808.11 523.945 807.907 524.441 808.111 524.773C808.315 525.104 808.85 525.146 809.305 524.865Z" fill="#F1F1F1"/>
<path d="M807.558 522.029C808.013 521.748 808.216 521.252 808.012 520.921C807.808 520.589 807.274 520.548 806.819 520.828C806.364 521.108 806.161 521.604 806.365 521.936C806.569 522.268 807.103 522.309 807.558 522.029Z" fill="#F1F1F1"/>
<path d="M813.42 514.502C813.875 514.222 814.078 513.726 813.874 513.394C813.67 513.062 813.136 513.021 812.681 513.301C812.226 513.582 812.023 514.078 812.227 514.409C812.431 514.741 812.965 514.782 813.42 514.502Z" fill="#F1F1F1"/>
<path d="M816.913 520.175C817.368 519.895 817.571 519.399 817.367 519.067C817.163 518.735 816.628 518.694 816.174 518.974C815.719 519.255 815.515 519.751 815.72 520.083C815.924 520.414 816.458 520.456 816.913 520.175Z" fill="#F1F1F1"/>
<path d="M815.166 517.338C815.621 517.058 815.824 516.562 815.62 516.23C815.416 515.899 814.882 515.857 814.427 516.138C813.972 516.418 813.769 516.914 813.973 517.246C814.177 517.577 814.711 517.619 815.166 517.338Z" fill="#F1F1F1"/>
<path d="M820.187 510.331C820.642 510.05 820.845 509.554 820.641 509.223C820.437 508.891 819.903 508.85 819.448 509.13C818.993 509.41 818.79 509.906 818.994 510.238C819.198 510.57 819.732 510.611 820.187 510.331Z" fill="#F1F1F1"/>
<path d="M823.68 516.004C824.135 515.723 824.338 515.227 824.134 514.896C823.93 514.564 823.395 514.523 822.94 514.803C822.486 515.083 822.282 515.58 822.486 515.911C822.691 516.243 823.225 516.284 823.68 516.004Z" fill="#F1F1F1"/>
<path d="M821.933 513.167C822.388 512.887 822.591 512.391 822.387 512.059C822.183 511.727 821.649 511.686 821.194 511.966C820.739 512.247 820.536 512.743 820.74 513.074C820.944 513.406 821.478 513.447 821.933 513.167Z" fill="#F1F1F1"/>
<path d="M827.795 505.64C828.25 505.36 828.453 504.864 828.249 504.532C828.045 504.201 827.511 504.159 827.056 504.44C826.601 504.72 826.398 505.216 826.602 505.548C826.806 505.879 827.34 505.921 827.795 505.64Z" fill="#F1F1F1"/>
<path d="M831.288 511.313C831.743 511.033 831.946 510.537 831.742 510.205C831.538 509.874 831.004 509.832 830.549 510.113C830.094 510.393 829.891 510.889 830.095 511.221C830.299 511.552 830.833 511.594 831.288 511.313Z" fill="#F1F1F1"/>
<path d="M829.541 508.477C829.996 508.196 830.2 507.7 829.995 507.369C829.791 507.037 829.257 506.996 828.802 507.276C828.347 507.557 828.144 508.053 828.348 508.384C828.552 508.716 829.087 508.757 829.541 508.477Z" fill="#F1F1F1"/>
<path d="M834.562 501.469C835.017 501.188 835.22 500.692 835.016 500.361C834.812 500.029 834.278 499.988 833.823 500.268C833.368 500.549 833.165 501.045 833.369 501.376C833.573 501.708 834.107 501.749 834.562 501.469Z" fill="#F1F1F1"/>
<path d="M838.055 507.142C838.51 506.861 838.713 506.365 838.509 506.034C838.305 505.702 837.77 505.661 837.316 505.941C836.861 506.222 836.657 506.718 836.862 507.049C837.066 507.381 837.6 507.422 838.055 507.142Z" fill="#F1F1F1"/>
<path d="M836.308 504.305C836.763 504.025 836.966 503.529 836.762 503.197C836.558 502.866 836.024 502.824 835.569 503.105C835.114 503.385 834.911 503.881 835.115 504.213C835.319 504.544 835.853 504.586 836.308 504.305Z" fill="#F1F1F1"/>
</g>
<g clip-path="url(#clip3)">
<path d="M80.0755 112.184L159.855 111.444C160.654 111.437 161.446 111.558 162.186 111.803C162.927 112.047 163.601 112.409 164.17 112.868C164.739 113.327 165.192 113.874 165.503 114.477C165.815 115.081 165.978 115.729 165.984 116.385L166.125 131.55L74.1794 132.402L74.039 117.238C74.0267 115.912 74.6558 114.635 75.7879 113.687C76.9199 112.739 78.4623 112.199 80.0755 112.184V112.184Z" fill="#F0F0F0"/>
<path d="M144.688 107.568L143.734 82.6444C143.69 81.4601 142.541 81.4708 142.519 82.6557L142.026 107.593L144.688 107.568Z" fill="#DADADA"/>
<path d="M131.858 107.687L130.905 82.7633C130.86 81.579 129.712 81.5897 129.689 82.7746L129.197 107.712L131.858 107.687Z" fill="#DADADA"/>
<path d="M78.6056 108.182L77.6518 83.2577C77.6072 82.0726 76.4627 82.0832 76.436 83.2681L75.9439 108.206L78.6056 108.182Z" fill="#DADADA"/>
<path d="M75.1502 108.213L154.93 107.473C156.543 107.459 158.095 107.971 159.245 108.897C160.394 109.824 161.047 111.089 161.059 112.415L161.199 127.579L69.2541 128.432L69.1137 113.267C69.1014 111.942 69.7305 110.665 70.8626 109.717C71.9946 108.769 73.537 108.228 75.1502 108.213V108.213Z" stroke="black" stroke-width="2" stroke-miterlimit="10"/>
<path d="M99.7567 117.188L82.0275 117.353C80.8781 117.363 79.9534 118.138 79.9621 119.082L79.9676 119.678C79.9764 120.622 80.9153 121.379 82.0647 121.368L99.7939 121.204C100.943 121.193 101.868 120.419 101.859 119.475L101.854 118.879C101.845 117.935 100.906 117.178 99.7567 117.188Z" fill="#AD91FA"/>
<path d="M133.613 116.874L126.269 116.942C125.485 116.95 124.855 117.478 124.861 118.122L124.876 119.805C124.882 120.449 125.523 120.965 126.306 120.958L133.65 120.89C134.434 120.883 135.064 120.355 135.059 119.711L135.043 118.027C135.037 117.383 134.397 116.867 133.613 116.874Z" fill="#7CE4DF"/>
<path d="M145.73 116.762L138.386 116.83C137.602 116.837 136.972 117.365 136.978 118.009L136.993 119.693C136.999 120.337 137.639 120.853 138.423 120.846L145.767 120.778C146.551 120.77 147.181 120.242 147.175 119.598L147.16 117.915C147.154 117.271 146.513 116.755 145.73 116.762Z" fill="#7CE4DF"/>
</g>
<path d="M165.153 488.474H82.2978C81.0408 488.474 79.8352 489.009 78.9463 489.961C78.0575 490.914 77.5581 492.206 77.5581 493.553V545.921C77.5581 547.268 78.0575 548.56 78.9463 549.512C79.8352 550.465 81.0408 551 82.2978 551H98.0915C98.0915 550.91 98.0846 550.821 98.0846 550.729V541.454C98.0889 539.857 98.6829 538.327 99.7367 537.197C100.791 536.068 102.219 535.432 103.709 535.427H143.742C145.232 535.432 146.66 536.068 147.714 537.197C148.768 538.327 149.362 539.857 149.366 541.454V550.729C149.366 550.821 149.366 550.91 149.366 551H165.153C166.41 551 167.615 550.465 168.504 549.512C169.393 548.56 169.893 547.268 169.893 545.921V493.553C169.893 492.206 169.393 490.914 168.504 489.961C167.615 489.009 166.41 488.474 165.153 488.474V488.474Z" fill="#F0F0F0"/>
<path d="M157.551 480.771H74.6956C73.4385 480.771 72.2329 481.307 71.344 482.259C70.4552 483.212 69.9558 484.503 69.9558 485.85V538.219C69.9558 539.566 70.4552 540.858 71.344 541.81C72.2329 542.763 73.4385 543.298 74.6956 543.298H90.4892C90.4892 543.207 90.4823 543.119 90.4823 543.027V533.752C90.4866 532.155 91.0806 530.624 92.1344 529.495C93.1883 528.366 94.6163 527.729 96.1066 527.725H136.139C137.63 527.729 139.058 528.366 140.112 529.495C141.165 530.624 141.759 532.155 141.764 533.752V543.027C141.764 543.119 141.764 543.207 141.764 543.298H157.551C158.808 543.298 160.013 542.763 160.902 541.81C161.791 540.858 162.29 539.566 162.29 538.219V485.85C162.29 484.503 161.791 483.212 160.902 482.259C160.013 481.307 158.808 480.771 157.551 480.771V480.771Z" stroke="black" stroke-miterlimit="10"/>
<path d="M152.96 475.069H79.2861V480.698H152.96V475.069Z" fill="#DADADA"/>
<path d="M89.0862 458.406H143.16C144.384 458.406 145.559 458.927 146.424 459.855C147.29 460.783 147.777 462.041 147.777 463.353V480.771H84.4695V463.353C84.4695 462.041 84.9559 460.783 85.8217 459.855C86.6875 458.927 87.8618 458.406 89.0862 458.406V458.406Z" fill="#DADADA"/>
<path d="M141.695 533.946H90.4131V540.611H141.695V533.946Z" fill="black"/>
<path d="M69.9558 533.946H162.29" stroke="black" stroke-miterlimit="10"/>
<path d="M134.922 538.389H96.9097L92.7629 546.684H139.068L134.922 538.389Z" fill="white" stroke="black" stroke-miterlimit="10"/>
<path d="M95.28 451H136.966C138.073 451 139.136 451.471 139.919 452.311C140.702 453.15 141.142 454.288 141.142 455.475V480.772H91.1042V455.475C91.1042 454.288 91.5442 453.15 92.3273 452.311C93.1104 451.471 94.1725 451 95.28 451V451Z" fill="#E2DDAD"/>
<path d="M148.951 509.877H102.784C101.868 509.877 101.125 510.672 101.125 511.654V519.504C101.125 520.486 101.868 521.282 102.784 521.282H148.951C149.868 521.282 150.61 520.486 150.61 519.504V511.654C150.61 510.672 149.868 509.877 148.951 509.877Z" fill="#F7D994"/>
<path d="M84.2622 498.027C86.3997 498.027 88.1325 496.17 88.1325 493.88C88.1325 491.589 86.3997 489.733 84.2622 489.733C82.1246 489.733 80.3918 491.589 80.3918 493.88C80.3918 496.17 82.1246 498.027 84.2622 498.027Z" fill="#F7D994"/>
<path d="M95.113 498.027C97.2505 498.027 98.9833 496.17 98.9833 493.88C98.9833 491.589 97.2505 489.733 95.113 489.733C92.9755 489.733 91.2427 491.589 91.2427 493.88C91.2427 496.17 92.9755 498.027 95.113 498.027Z" fill="#AD91FA"/>
<path d="M105.964 498.027C108.101 498.027 109.834 496.17 109.834 493.88C109.834 491.589 108.101 489.733 105.964 489.733C103.826 489.733 102.093 491.589 102.093 493.88C102.093 496.17 103.826 498.027 105.964 498.027Z" fill="#7CE4DF"/>
<path d="M98.0845 459.665H134.161" stroke="white" stroke-width="20" stroke-miterlimit="10" stroke-linecap="round"/>
<path d="M98.0845 466.478H134.161" stroke="white" stroke-width="20" stroke-miterlimit="10" stroke-linecap="round"/>
<path d="M98.0845 473.292H116.192" stroke="white" stroke-width="20" stroke-miterlimit="10" stroke-linecap="round"/>
<g clip-path="url(#clip4)">
<path d="M796.897 313.754L838.413 298.031C838.87 297.859 839.383 297.892 839.839 298.124C840.295 298.355 840.658 298.766 840.847 299.266L866.96 368.308C868.05 371.19 868.05 374.35 866.961 377.092C865.871 379.835 863.781 381.935 861.15 382.932L827.833 395.549C827.377 395.722 826.864 395.689 826.407 395.457C825.951 395.226 825.588 394.815 825.399 394.315L795.889 316.292C795.699 315.792 795.699 315.243 795.888 314.767C796.078 314.291 796.44 313.927 796.897 313.754V313.754Z" fill="#F0F0F0"/>
<path d="M794.326 312.099L835.841 296.378C836.298 296.205 836.811 296.237 837.268 296.469C837.724 296.7 838.087 297.111 838.276 297.612L864.389 366.651C864.928 368.078 865.206 369.589 865.206 371.096C865.207 372.603 864.929 374.078 864.39 375.436C863.85 376.794 863.059 378.009 862.062 379.011C861.065 380.012 859.882 380.782 858.579 381.275L825.262 393.892C825.036 393.978 824.794 394.014 824.549 393.998C824.304 393.983 824.062 393.916 823.836 393.801C823.61 393.686 823.404 393.527 823.231 393.33C823.058 393.134 822.921 392.906 822.827 392.658L793.318 314.637C793.129 314.137 793.129 313.589 793.318 313.113C793.507 312.637 793.87 312.272 794.326 312.099V312.099Z" stroke="black" stroke-miterlimit="10"/>
<path d="M839.116 299.83L838.276 297.612C838.183 297.364 838.046 297.135 837.873 296.939C837.7 296.743 837.494 296.583 837.268 296.468C837.042 296.354 836.799 296.287 836.555 296.271C836.31 296.255 836.067 296.292 835.841 296.378L794.326 312.099C794.1 312.185 793.895 312.318 793.721 312.492C793.548 312.666 793.411 312.877 793.317 313.112C793.224 313.348 793.176 313.604 793.176 313.866C793.176 314.127 793.224 314.39 793.318 314.637L794.157 316.856L839.116 299.83Z" stroke="black" stroke-miterlimit="10"/>
<path d="M795.815 311.535L797.368 315.64" stroke="black" stroke-miterlimit="10"/>
<path d="M833.977 297.167L835.53 301.272" stroke="black" stroke-miterlimit="10"/>
<path d="M799.628 317.459L834.694 304.179C835.143 304.009 835.648 304.042 836.097 304.269C836.546 304.497 836.903 304.901 837.089 305.393L846.098 329.213C846.41 330.038 846.571 330.91 846.571 331.781C846.571 332.652 846.411 333.504 846.099 334.289C845.787 335.074 845.33 335.776 844.754 336.355C844.178 336.934 843.494 337.378 842.741 337.663L811.714 349.413C811.264 349.584 810.76 349.551 810.311 349.324C809.862 349.096 809.505 348.692 809.319 348.2L798.639 319.962C798.545 319.718 798.497 319.46 798.496 319.202C798.496 318.944 798.543 318.691 798.635 318.459C798.727 318.226 798.862 318.018 799.032 317.847C799.202 317.675 799.405 317.543 799.628 317.459V317.459Z" fill="#DADADA"/>
<path d="M830.814 310.125L806.595 319.297L815.728 343.443L839.947 334.271L830.814 310.125Z" fill="#F0F0F0"/>
<path d="M805.953 330.061C806.34 329.915 806.524 329.453 806.363 329.029C806.203 328.606 805.76 328.381 805.373 328.528C804.987 328.674 804.803 329.136 804.963 329.56C805.124 329.983 805.567 330.208 805.953 330.061Z" fill="#AD91FA"/>
<path d="M821.157 358.468L818.906 359.32C818.439 359.497 818.217 360.056 818.411 360.567L822.33 370.929C822.523 371.441 823.059 371.712 823.526 371.535L825.777 370.683C826.244 370.506 826.466 369.948 826.272 369.436L822.353 359.074C822.159 358.563 821.624 358.291 821.157 358.468Z" fill="#DADADA"/>
<path d="M828.384 364.125L827.451 361.659C827.258 361.148 826.722 360.876 826.255 361.053L816.796 364.635C816.329 364.812 816.107 365.37 816.301 365.882L817.233 368.347C817.427 368.859 817.963 369.13 818.43 368.953L827.888 365.372C828.355 365.195 828.577 364.636 828.384 364.125Z" fill="#DADADA"/>
<path d="M846.769 360.849C848.33 360.258 849.071 358.393 848.424 356.682C847.777 354.972 845.987 354.065 844.426 354.656C842.865 355.248 842.124 357.113 842.771 358.823C843.418 360.534 845.207 361.441 846.769 360.849Z" fill="#F7D994"/>
<path d="M852.652 354.144C854.213 353.552 854.954 351.687 854.307 349.977C853.661 348.266 851.871 347.359 850.31 347.951C848.748 348.542 848.007 350.407 848.654 352.118C849.301 353.828 851.091 354.735 852.652 354.144Z" fill="#7CE4DF"/>
<path d="M834.908 372.134L831.962 375.545C831.727 375.817 831.754 376.254 832.022 376.522L832.024 376.523C832.292 376.791 832.699 376.788 832.933 376.516L835.88 373.105C836.114 372.833 836.087 372.396 835.819 372.128L835.818 372.127C835.549 371.859 835.142 371.862 834.908 372.134Z" fill="#AD91FA"/>
<path d="M842.773 369.372L839.827 372.784C839.593 373.055 839.62 373.492 839.888 373.76L839.889 373.761C840.157 374.029 840.565 374.026 840.799 373.755L843.745 370.343C843.98 370.072 843.952 369.635 843.684 369.367L843.683 369.366C843.415 369.098 843.008 369.101 842.773 369.372Z" fill="#AD91FA"/>
<path d="M849.048 375.679C848.883 375.533 848.646 375.55 848.52 375.718C848.393 375.886 848.424 376.14 848.589 376.287L854.305 381.361C854.47 381.507 854.707 381.49 854.834 381.322C854.96 381.154 854.929 380.9 854.764 380.753L849.048 375.679Z" fill="#DADADA"/>
<path d="M850.449 373.267C850.284 373.122 850.049 373.14 849.923 373.307C849.797 373.475 849.828 373.728 849.992 373.874L855.698 378.919C855.863 379.064 856.098 379.047 856.224 378.879C856.35 378.712 856.319 378.458 856.154 378.312L850.449 373.267Z" fill="#DADADA"/>
<path d="M852.483 371.114C852.318 370.967 852.081 370.985 851.955 371.152C851.828 371.32 851.859 371.575 852.024 371.721L857.74 376.795C857.905 376.941 858.142 376.924 858.269 376.756C858.395 376.589 858.364 376.334 858.2 376.188L852.483 371.114Z" fill="#DADADA"/>
<path d="M853.864 368.729C853.699 368.584 853.464 368.601 853.338 368.769C853.212 368.936 853.243 369.19 853.408 369.336L859.113 374.381C859.278 374.526 859.513 374.508 859.639 374.341C859.765 374.173 859.734 373.92 859.57 373.774L853.864 368.729Z" fill="#DADADA"/>
<path d="M855.609 366.408C855.444 366.262 855.209 366.28 855.083 366.448C854.957 366.615 854.988 366.869 855.153 367.014L860.858 372.059C861.023 372.205 861.259 372.187 861.385 372.019C861.511 371.852 861.479 371.598 861.315 371.453L855.609 366.408Z" fill="#DADADA"/>
<path d="M857.189 364.076C857.024 363.931 856.789 363.949 856.663 364.116C856.537 364.283 856.568 364.537 856.733 364.683L862.438 369.728C862.603 369.873 862.839 369.855 862.965 369.688C863.091 369.52 863.059 369.267 862.895 369.121L857.189 364.076Z" fill="#DADADA"/>
</g>
<path d="M117.095 234.036L192.709 281.124C193.303 281.494 193.718 282.098 193.862 282.804C194.006 283.509 193.868 284.258 193.477 284.886L125.639 393.958L45.5447 344.08L113.383 235.008C113.773 234.38 114.384 233.925 115.08 233.743C115.776 233.561 116.501 233.666 117.095 234.036V234.036Z" fill="#F0F0F0"/>
<path d="M115.451 224.187L191.065 271.275C191.659 271.645 192.073 272.25 192.218 272.955C192.362 273.661 192.223 274.41 191.833 275.037L123.995 384.11L43.9002 334.231L111.738 225.159C112.129 224.531 112.739 224.076 113.435 223.894C114.131 223.712 114.856 223.817 115.451 224.187V224.187Z" stroke="black" stroke-miterlimit="10"/>
<path d="M106.273 323.273C124.421 334.574 148.799 328.194 160.723 309.022C172.647 289.85 167.602 265.147 149.454 253.845C131.306 242.544 106.928 248.924 95.0043 268.096C83.0803 287.268 88.1256 311.972 106.273 323.273Z" fill="#DADADA"/>
<path d="M120.319 300.689C126.661 304.638 135.179 302.409 139.346 295.71C143.513 289.01 141.75 280.378 135.408 276.429C129.067 272.48 120.548 274.71 116.382 281.409C112.215 288.108 113.978 296.74 120.319 300.689Z" fill="#F0F0F0"/>
<path d="M113.291 235.156C114.734 236.055 116.673 235.547 117.622 234.022C118.57 232.497 118.169 230.532 116.725 229.633C115.282 228.734 113.343 229.242 112.394 230.767C111.446 232.292 111.847 234.257 113.291 235.156Z" fill="#AD91FA"/>
<path d="M181.81 277.825C183.253 278.724 185.192 278.217 186.141 276.692C187.089 275.167 186.688 273.202 185.244 272.303C183.801 271.404 181.862 271.911 180.913 273.436C179.965 274.961 180.366 276.926 181.81 277.825Z" fill="#AD91FA"/>
<path d="M129.723 239.506L122.296 234.881C121.976 234.681 121.545 234.794 121.334 235.133L120.257 236.864C120.046 237.203 120.135 237.64 120.456 237.839L127.883 242.465C128.204 242.664 128.635 242.551 128.845 242.213L129.922 240.481C130.133 240.142 130.044 239.706 129.723 239.506Z" fill="#7CE4DF"/>
<path d="M122.589 297.04C127.023 299.802 132.979 298.243 135.892 293.559C138.805 288.875 137.573 282.839 133.139 280.078C128.705 277.317 122.749 278.876 119.836 283.56C116.922 288.244 118.155 294.279 122.589 297.04Z" fill="#F7D994"/>
<path d="M131.109 372.669L51.0146 322.791L43.8996 334.231L123.994 384.109L131.109 372.669Z" fill="white" stroke="black" stroke-miterlimit="10"/>
<path d="M123.463 371.875L102.339 358.721C101.161 357.987 99.5776 358.401 98.8032 359.646L98.05 360.857C97.2756 362.102 97.6032 363.707 98.7818 364.441L119.905 377.595C121.084 378.329 122.667 377.915 123.441 376.67L124.195 375.458C124.969 374.213 124.641 372.609 123.463 371.875Z" fill="#DADADA"/>
<path d="M61.673 331.891L59.2458 330.38L54.2163 338.466L56.6434 339.978L61.673 331.891Z" fill="#F7D994"/>
<path d="M66.4896 334.891L64.0625 333.379L59.0329 341.466L61.46 342.978L66.4896 334.891Z" fill="#F7D994"/>
<path d="M71.3068 337.891L68.8796 336.379L63.8501 344.466L66.2772 345.977L71.3068 337.891Z" fill="#F7D994"/>
<path d="M76.1234 340.89L73.6963 339.379L68.6667 347.465L71.0938 348.977L76.1234 340.89Z" fill="#F7D994"/>
<path d="M80.9405 343.89L78.5134 342.378L73.4839 350.465L75.911 351.977L80.9405 343.89Z" fill="#F7D994"/>
<path d="M85.7572 346.89L83.3301 345.378L78.3005 353.465L80.7276 354.976L85.7572 346.89Z" fill="#F7D994"/>
<path d="M74.6882 333.703L69.9866 297.493L55.1002 321.428L74.6882 333.703Z" fill="#DADADA"/>
<path d="M108.297 305.689L66.702 311.628C66.4982 311.657 66.3006 311.729 66.1222 311.84C65.9437 311.952 65.7885 312.099 65.6666 312.274C65.5448 312.448 65.4591 312.645 65.4151 312.852C65.3712 313.058 65.3701 313.27 65.4118 313.473L67.3327 322.878C67.3739 323.081 67.457 323.271 67.5766 323.435C67.6962 323.599 67.8496 323.733 68.0267 323.829C68.2038 323.926 68.4005 323.981 68.604 323.992C68.8075 324.004 69.0131 323.971 69.2074 323.895L108.883 308.554C110.524 307.918 110.019 305.444 108.297 305.689Z" fill="#AD91FA"/>
<path d="M135.693 358.028L117.539 346.722L111.412 356.572L129.567 367.878L135.693 358.028Z" fill="#7CE4DF"/>
<path d="M143.536 345.419L125.381 334.113L119.255 343.963L137.41 355.269L143.536 345.419Z" fill="#7CE4DF"/>
<g clip-path="url(#clip5)">
<path d="M890.408 81.8877L868.229 92.4822C867.019 93.0601 866.594 94.6929 867.279 96.1293C867.964 97.5656 869.5 98.2615 870.71 97.6836L892.889 87.0892C894.099 86.5113 894.525 84.8784 893.839 83.4421C893.154 82.0058 891.618 81.3099 890.408 81.8877Z" fill="#DBDBDB"/>
<path d="M967.023 48.4844L860.086 99.5653C854.38 102.291 852.374 109.992 855.606 116.766L896.479 202.44C899.71 209.214 906.956 212.496 912.661 209.77L1019.6 158.689C1025.3 155.964 1027.31 148.263 1024.08 141.489L983.205 55.815C979.974 49.0409 972.728 45.7589 967.023 48.4844Z" fill="#F1F1F1"/>
<path d="M968.442 46.2094L923.689 67.5867C918.354 70.1352 916.479 77.3361 919.501 83.6703L942.367 131.601C945.389 137.936 952.164 141.005 957.499 138.456L1002.25 117.079C1007.59 114.53 1009.46 107.329 1006.44 100.995L983.574 53.0641C980.552 46.7299 973.777 43.6609 968.442 46.2094Z" fill="#DBDBDB"/>
<path d="M908.493 103.586L878.099 118.105C876.284 118.971 875.646 121.421 876.674 123.575L893.889 159.66C894.917 161.814 897.221 162.858 899.036 161.991L929.43 147.473C931.245 146.606 931.882 144.157 930.855 142.003L913.64 105.918C912.612 103.763 910.307 102.719 908.493 103.586Z" fill="#F7D999"/>
<path d="M975.223 118.015C987.17 112.308 991.369 96.1837 984.602 81.9999C977.836 67.8161 962.665 60.9441 950.718 66.6508C938.772 72.3575 934.572 88.4819 941.339 102.666C948.106 116.849 963.276 123.721 975.223 118.015Z" stroke="black" stroke-miterlimit="10"/>
<path d="M973.517 114.439C983.8 109.527 987.415 95.6475 981.59 83.4387C975.766 71.2298 962.708 65.3147 952.424 70.2267C942.141 75.1388 938.526 89.0181 944.351 101.227C950.175 113.436 963.233 119.351 973.517 114.439Z" stroke="black" stroke-miterlimit="10"/>
<path d="M971.501 110.213C979.818 106.24 982.742 95.0138 978.031 85.1391C973.32 75.2643 962.758 70.48 954.441 74.453C946.123 78.426 943.2 89.6518 947.911 99.5266C952.622 109.401 963.183 114.186 971.501 110.213Z" fill="#F1F1F1"/>
<path d="M967.003 100.785C970.935 98.9068 972.317 93.6 970.09 88.9319C967.863 84.2639 962.87 82.0022 958.938 83.8803C955.006 85.7585 953.624 91.0652 955.851 95.7333C958.078 100.401 963.071 102.663 967.003 100.785Z" fill="#AE95F8"/>
<path d="M964.211 94.9334C965.421 94.3555 965.846 92.7226 965.161 91.2863C964.476 89.85 962.94 89.1541 961.73 89.732C960.52 90.3098 960.095 91.9427 960.78 93.379C961.465 94.8154 963.001 95.5113 964.211 94.9334Z" fill="#7FE3DE"/>
<path d="M1001.45 134.227L967.77 150.315L973.973 163.319L1007.65 147.231L1001.45 134.227Z" fill="#DBDBDB"/>
</g>
<path d="M477.63 486.631C473.652 487.299 470.076 489.367 467.683 492.383C465.29 495.399 464.275 499.118 464.858 502.728L472.863 551.232C473.47 554.838 475.627 558.032 478.862 560.118C482.097 562.204 486.148 563.012 490.129 562.365L502.182 560.374L489.683 484.639L477.63 486.631Z" fill="#7FE3DE"/>
<path d="M644.795 459.008C648.776 458.361 652.827 459.169 656.062 461.255C659.297 463.341 661.454 466.536 662.061 470.142L670.066 518.646C670.649 522.255 669.634 525.974 667.241 528.991C664.848 532.007 661.272 534.075 657.294 534.743L645.248 536.733L632.749 460.999L644.795 459.008Z" fill="#AE95F8"/>
<path d="M630.697 461.694L491.841 484.639L504.225 559.678L643.081 536.733L630.697 461.694Z" fill="#F1F1F1"/>
<path d="M624.862 464.977L497.897 485.957C495.727 486.315 494.232 488.2 494.556 490.167L505.02 553.569C505.344 555.536 507.366 556.84 509.536 556.481L636.501 535.501C638.671 535.143 640.166 533.258 639.842 531.291L629.378 467.889C629.054 465.922 627.032 464.618 624.862 464.977Z" fill="#DBDBDB"/>
<path d="M619.627 471.821L505.464 490.686L515.182 549.571L629.345 530.707L619.627 471.821Z" fill="#F1F1F1"/>
<path d="M488.675 490.949L483.956 491.729L484.211 493.273L488.93 492.493L488.675 490.949Z" fill="#F7D999"/>
<path d="M640.492 465.862L635.773 466.642L636.028 468.186L640.747 467.407L640.492 465.862Z" fill="#F7D999"/>
<path d="M637.054 465.027L637.76 469.305L639.464 469.024L638.758 464.746L637.054 465.027Z" fill="#F7D999"/>
<path d="M480.768 510.774C484.316 510.188 486.761 507.106 486.231 503.89C485.7 500.674 482.394 498.543 478.847 499.129C475.299 499.715 472.854 502.797 473.385 506.013C473.915 509.229 477.221 511.36 480.768 510.774Z" fill="#969696"/>
<path d="M653.682 506.855C657.229 506.269 659.675 503.187 659.144 499.971C658.614 496.755 655.308 494.624 651.76 495.21C648.213 495.796 645.768 498.878 646.298 502.094C646.829 505.31 650.135 507.441 653.682 506.855Z" fill="#969696"/>
<path d="M483.39 526.203C485.055 525.928 486.203 524.481 485.954 522.971C485.705 521.461 484.153 520.46 482.487 520.735C480.822 521.011 479.674 522.458 479.923 523.967C480.172 525.477 481.724 526.478 483.39 526.203Z" fill="#969696"/>
<path d="M482.738 522.252L481.879 524.267L484.2 523.883L482.738 522.252Z" fill="white"/>
<path d="M485.219 537.291C486.885 537.015 488.033 535.568 487.784 534.059C487.535 532.549 485.983 531.548 484.317 531.823C482.652 532.098 481.504 533.545 481.753 535.055C482.002 536.565 483.554 537.566 485.219 537.291Z" fill="#969696"/>
<path d="M484.969 535.772L483.509 534.14L485.829 533.757L484.969 535.772Z" fill="white"/>
<path d="M490.938 530.574C492.603 530.299 493.752 528.852 493.502 527.342C493.253 525.832 491.701 524.831 490.036 525.107C488.37 525.382 487.222 526.829 487.471 528.339C487.72 529.848 489.273 530.849 490.938 530.574Z" fill="#969696"/>
<path d="M491.829 527.618L489.992 529.002L489.644 526.898L491.829 527.618Z" fill="white"/>
<path d="M477.843 532.738C479.509 532.463 480.657 531.016 480.408 529.506C480.159 527.996 478.607 526.995 476.941 527.271C475.276 527.546 474.128 528.993 474.377 530.502C474.626 532.012 476.178 533.013 477.843 532.738Z" fill="#969696"/>
<path d="M476.052 530.226L478.237 530.944L477.889 528.84L476.052 530.226Z" fill="white"/>
<path d="M648.614 476.144C650.279 475.869 651.427 474.422 651.178 472.912C650.929 471.402 649.377 470.402 647.711 470.677C646.046 470.952 644.898 472.399 645.147 473.909C645.396 475.419 646.948 476.419 648.614 476.144Z" fill="white"/>
<path d="M650.444 487.232C652.109 486.957 653.257 485.51 653.008 484C652.759 482.49 651.207 481.489 649.541 481.765C647.876 482.04 646.728 483.487 646.977 484.997C647.226 486.506 648.778 487.507 650.444 487.232Z" fill="white"/>
<path d="M656.162 480.513C657.827 480.238 658.976 478.791 658.726 477.281C658.477 475.772 656.925 474.771 655.26 475.046C653.594 475.321 652.446 476.768 652.695 478.278C652.944 479.788 654.497 480.788 656.162 480.513Z" fill="white"/>
<path d="M643.067 482.677C644.733 482.402 645.881 480.955 645.632 479.445C645.383 477.935 643.83 476.935 642.165 477.21C640.5 477.485 639.351 478.932 639.601 480.442C639.85 481.951 641.402 482.952 643.067 482.677Z" fill="white"/>
<path d="M517.166 479.178L502.444 481.61L502.649 482.852L517.371 480.42L517.166 479.178Z" fill="#DBDBDB"/>
<path d="M544.163 476.358L612.163 532.278L633.203 449.083L544.163 476.358Z" stroke="#F7D999" stroke-width="2" stroke-miterlimit="10"/>
<path d="M556.497 521.452L525.122 522.117L515.171 549.508L540.396 565.773L565.937 548.434L556.497 521.452Z" stroke="#AE95F8" stroke-miterlimit="10"/>
<g clip-path="url(#clip6)">
<path d="M565.462 83.3749L496.481 105.459C491.094 107.184 488.062 112.756 489.708 117.905L538.528 270.588C540.174 275.738 545.876 278.514 551.263 276.789L620.244 254.705C625.631 252.98 628.664 247.408 627.017 242.259L578.198 89.5757C576.551 84.4265 570.849 81.6503 565.462 83.3749Z" fill="#AB8FE2"/>
<path d="M564.992 89.0086L500.812 109.556C496.911 110.805 494.716 114.839 495.908 118.567L543.26 266.662C544.452 270.39 548.581 272.4 552.481 271.152L616.662 250.604C620.562 249.356 622.758 245.321 621.566 241.593L574.213 93.4982C573.021 89.7699 568.893 87.7599 564.992 89.0086Z" fill="white"/>
<path d="M548.619 88.6471L513.481 99.8965C511.123 100.652 509.795 103.091 510.516 105.346L511.156 107.35C511.877 109.604 514.374 110.819 516.732 110.064L551.87 98.815C554.229 98.0599 555.556 95.6202 554.836 93.3658L554.195 91.362C553.474 89.1075 550.978 87.892 548.619 88.6471Z" fill="#AB8FE2"/>
<path d="M551.474 157.367C564.036 153.345 571.108 140.351 567.268 128.343C563.429 116.336 550.133 109.862 537.571 113.884C525.009 117.905 517.937 130.9 521.777 142.907C525.616 154.915 538.912 161.389 551.474 157.367Z" fill="#E2E2E2"/>
<path d="M526.469 182.543L523.563 173.456L604.019 147.698L606.924 156.785L526.469 182.543Z" fill="#F8DA96"/>
<path d="M572.5 184.976L531.449 198.119L529.996 193.574" stroke="black" stroke-width="1.31" stroke-miterlimit="10"/>
<path d="M581.007 211.583L539.956 224.725L538.504 220.183" stroke="black" stroke-width="1.31" stroke-miterlimit="10"/>
<path d="M528.543 189.031L608.999 163.274L610.451 167.816" stroke="black" stroke-width="1.31" stroke-miterlimit="10"/>
<path d="M542.032 231.216L622.487 205.458L623.94 210.001" stroke="black" stroke-width="1.31" stroke-miterlimit="10"/>
<path d="M613.979 178.849L533.524 204.607L536.428 213.692L616.884 187.934L613.979 178.849Z" fill="#F8DA96"/>
<path d="M564.853 263.974L602.423 251.946" stroke="#E2E2E2" stroke-width="6.79" stroke-linecap="round" stroke-linejoin="round"/>
</g>
<path d="M1118.95 80.244C1118.63 81.4953 1117.85 82.4972 1116.59 83.2497C1115.36 83.9898 1114.12 84.17 1112.89 83.7903C1111.66 83.4312 1110.66 82.5926 1109.87 81.2746C1109.07 79.936 1108.39 78.2599 1107.83 76.2462L1106.48 70.8417C1106.06 74.0608 1105.72 77.101 1105.48 79.9621C1104.99 85.5979 1104.64 89.3873 1104.44 91.3303L1103.79 91.5089L1093.64 77.2792L1093.86 83.2696C1094.17 89.1035 1093.94 93.1957 1093.2 95.5459C1092.48 97.9044 1090.82 99.8669 1088.2 101.434C1085.98 102.766 1083.66 103.077 1081.25 102.367C1079.32 101.76 1077.82 100.551 1076.73 98.7385C1076.53 98.409 1076.35 98.0569 1076.18 97.6821L1076.84 97.3738C1076.99 97.728 1077.16 98.0595 1077.35 98.3685C1078.35 100.037 1079.72 101.133 1081.46 101.657C1083.67 102.317 1085.8 102.037 1087.83 100.816C1090.28 99.3478 1091.85 97.4737 1092.52 95.1934C1093.21 92.9337 1093.42 88.9774 1093.14 83.3246L1092.66 69.8926C1090.45 71.1589 1088.12 72.0897 1085.68 72.6848C1083.25 73.247 1081.22 74.0153 1079.6 74.9898C1077.99 75.952 1076.98 77.3263 1076.57 79.1128C1076.15 80.8992 1076.48 82.6883 1077.55 84.48L1076.94 84.8501C1075.75 82.873 1075.39 80.9089 1075.84 78.9578C1076.31 76.9738 1077.5 75.4082 1079.41 74.261C1080.95 73.3358 1082.99 72.5778 1085.52 71.9869C1088.05 71.363 1090.56 70.3109 1093.03 68.8307L1104.31 84.7348L1104.41 83.4998C1105.18 74.9247 1105.98 68.6511 1106.82 64.6788C1107.65 60.686 1108.79 58.2517 1110.25 57.3758L1110.62 57.9937C1109.98 58.3761 1109.38 59.2134 1108.81 60.5057C1108.94 61.0451 1109.4 62.9105 1110.19 66.1017C1110.97 69.2724 1111.63 72.0642 1112.18 74.4772C1112.74 76.8572 1113.4 78.6856 1114.16 79.9625C1114.93 81.2393 1115.72 82.051 1116.54 82.3974C1116.97 82.1384 1117.32 81.8051 1117.58 81.3978C1117.87 80.9986 1118.06 80.6509 1118.13 80.3545L1118.23 79.9594L1118.95 80.244ZM1126.22 48.5211C1124.18 48.7954 1122.2 49.5061 1120.28 50.6533C1118.39 51.7882 1117.21 53.3208 1116.74 55.2514C1116.29 57.1695 1116.66 59.1068 1117.83 61.0633L1117.15 61.4704C1115.87 59.3286 1115.48 57.1936 1116 55.0655C1116.5 52.9169 1117.79 51.2257 1119.84 49.9922C1121.49 49.0054 1123.46 48.2576 1125.76 47.7488C1128.44 47.2321 1131.07 46.2028 1133.65 44.6608L1134.03 45.3096C1132.49 46.2347 1131.21 46.9028 1130.2 47.3137C1130.23 47.4084 1130.36 47.7914 1130.59 48.4626C1131.85 52.2965 1132.84 55.3541 1133.56 57.6354L1141.84 52.6766L1136.97 37.3825L1137.62 36.9939L1144.4 58.15C1144.67 59.023 1144.89 59.5934 1145.05 59.8611C1145.57 60.726 1146.23 60.918 1147.03 60.4369C1147.61 60.0915 1147.93 59.4907 1148.01 58.6344L1148.66 58.7461C1148.68 59.1001 1148.57 59.5015 1148.33 59.95C1148.11 60.4192 1147.73 60.8141 1147.2 61.1349C1146.68 61.4432 1146.16 61.5149 1145.65 61.3498C1145.15 61.1724 1144.75 60.8366 1144.46 60.3423L1143.61 58.0815L1142.05 53.3067L1133.74 58.284C1134.03 59.2846 1134.37 60.3574 1134.75 61.5022C1135.12 62.647 1135.44 63.802 1135.69 64.9673C1135.96 66.1203 1136.12 67.3781 1136.18 68.7409C1136.24 70.1037 1136.11 71.314 1135.8 72.3718C1135.51 73.4379 1134.97 74.4914 1134.16 75.5324C1133.39 76.5816 1132.4 77.4702 1131.19 78.1979C1129.99 78.9134 1128.72 79.3653 1127.38 79.5537C1126.04 79.742 1124.77 79.6505 1123.57 79.2791C1121.48 78.5982 1119.84 77.2486 1118.63 75.2304C1118.43 74.9009 1118.24 74.5652 1118.07 74.2234L1118.8 73.909C1118.95 74.2097 1119.12 74.5041 1119.29 74.7925C1120.43 76.7077 1121.97 77.9584 1123.88 78.5444C1125.83 79.1388 1127.8 78.8438 1129.77 77.6596C1131.75 76.4754 1132.82 75.1176 1133 73.5862C1133.17 72.0549 1132.73 69.5802 1131.66 66.1623C1130.61 62.7321 1128.8 56.8517 1126.22 48.5211ZM1161.51 57.0051L1161.16 56.4181C1162.4 55.5916 1163.07 54.744 1163.16 53.8753C1163.26 53.0067 1162.86 51.374 1161.95 48.9773L1154.69 30.1181C1150.68 32.997 1147.97 35.8686 1146.55 38.7329C1145.14 41.5643 1145.14 44.1642 1146.56 46.5325C1147.2 47.6034 1148.11 48.2875 1149.3 48.5849C1150.11 48.7707 1151.02 48.7447 1152.02 48.5066C1153.01 48.248 1153.79 47.9789 1154.35 47.6994C1154.92 47.3869 1155.21 47.1978 1155.23 47.1319L1155.61 47.7806C1153.19 49.2362 1151.04 49.7389 1149.18 49.2888C1147.83 49.0037 1146.76 48.2021 1145.97 46.8841C1144.21 43.9391 1144.38 40.7445 1146.49 37.3002C1148.62 33.8435 1152.49 30.4314 1158.11 27.0638C1161.61 24.9668 1164.38 23.9541 1166.4 24.0256C1168.45 24.0848 1169.97 24.9381 1170.96 26.5857C1171.93 28.2126 1172.2 29.9522 1171.77 31.8045C1171.36 33.6445 1170.43 35.4327 1168.98 37.1689C1174.99 41.1258 1178.7 43.432 1180.13 44.0877C1181.57 44.764 1182.82 44.7814 1183.89 44.1399C1184.53 43.7575 1184.98 43.2124 1185.22 42.5044C1185.5 41.8048 1185.54 41.0534 1185.34 40.2505L1186.11 39.7879C1186.74 42.3244 1185.76 44.3637 1183.19 45.9056C1181.56 46.8801 1179.98 47.2968 1178.44 47.1556C1176.94 47.0227 1175.35 46.3896 1173.7 45.2562L1166.04 40.0259C1165.26 40.6017 1164.68 41.0068 1164.29 41.2412C1164.41 41.5871 1164.63 42.1678 1164.95 42.9832C1165.27 43.7986 1165.5 44.4163 1165.64 44.8363C1166.56 47.3072 1166.56 49.6704 1165.65 51.9258C1164.76 54.1894 1163.39 55.8825 1161.51 57.0051ZM1170.21 27.1594C1168.32 24.0085 1164.5 24.1168 1158.74 27.4842L1164 40.4876C1166.88 38.6536 1168.91 36.4422 1170.1 33.8535C1171.28 31.2443 1171.32 29.0129 1170.21 27.1594ZM1111.94 137.389C1114.1 136.093 1115.52 134.645 1116.18 133.044C1116.87 131.431 1116.77 129.893 1115.9 128.431C1115.27 127.381 1114.45 126.614 1113.43 126.132C1112.43 125.637 1111.39 125.367 1110.3 125.32C1109.2 125.254 1108.08 125.21 1106.95 125.188C1105.84 125.154 1104.7 124.956 1103.53 124.593C1102.36 124.23 1101.37 123.622 1100.55 122.769C1098.35 123.335 1096.41 122.912 1094.76 121.498C1094.12 120.955 1093.59 120.312 1093.14 119.57C1092.7 118.829 1092.35 117.989 1092.09 117.05C1091.62 115.181 1091.68 113.524 1092.27 112.079L1092.9 112.37C1092.35 113.65 1092.31 115.161 1092.76 116.902C1093 117.767 1093.32 118.539 1093.73 119.219C1094.14 119.899 1094.63 120.486 1095.2 120.98C1096.6 122.187 1098.22 122.586 1100.07 122.176C1099.89 121.974 1099.66 121.636 1099.38 121.162C1097.77 118.464 1097.44 115.696 1098.4 112.856C1099.35 110.016 1101.24 107.751 1104.06 106.061C1105.91 104.95 1107.7 104.567 1109.41 104.91C1110.89 105.228 1112.02 106.036 1112.79 107.333C1113.56 108.61 1113.79 109.981 1113.49 111.447C1113.18 112.891 1112.3 114.052 1110.84 114.928C1110.03 115.409 1109.28 115.649 1108.58 115.648C1108.01 117.081 1107.11 118.404 1105.88 119.617C1106.53 119.762 1107.92 119.909 1110.05 120.059C1112.2 120.196 1113.94 120.527 1115.26 121.051C1116.58 121.542 1117.63 122.426 1118.4 123.702C1119.8 126.05 1120.02 128.504 1119.07 131.064C1118.13 133.612 1116.26 135.724 1113.46 137.402C1110.68 139.067 1108.21 139.708 1106.05 139.323C1104.19 139.013 1102.8 138.096 1101.89 136.572C1100.99 135.069 1100.7 133.492 1101.03 131.841C1101.36 130.157 1102.26 128.878 1103.72 128.002C1105.19 127.126 1106.46 126.808 1107.56 127.047C1108.64 127.267 1109.46 127.839 1110.01 128.766C1110.57 129.693 1110.77 130.689 1110.63 131.756C1110.5 132.809 1109.99 133.608 1109.08 134.15C1108.18 134.693 1107.28 134.837 1106.4 134.581C1105.61 134.382 1104.97 133.931 1104.46 133.227C1104.32 133.033 1104.24 132.91 1104.24 132.856L1104.84 132.535C1105.25 133.269 1105.84 133.73 1106.6 133.92C1107.25 134.118 1107.94 133.995 1108.68 133.551C1109.44 133.095 1109.87 132.432 1109.97 131.564C1110.08 130.716 1109.9 129.911 1109.45 129.149C1108.98 128.366 1108.33 127.898 1107.52 127.745C1106.56 127.506 1105.42 127.781 1104.11 128.57C1102.79 129.36 1101.99 130.497 1101.7 131.983C1101.4 133.449 1101.66 134.851 1102.46 136.19C1103.27 137.549 1104.52 138.369 1106.2 138.65C1107.2 138.832 1108.11 138.843 1108.94 138.683C1109.79 138.511 1110.79 138.079 1111.94 137.389ZM1104.47 112.99C1103.93 112.084 1103.71 111.196 1103.8 110.328C1103.92 109.447 1104.38 108.766 1105.18 108.285C1106.56 107.458 1107.71 107.807 1108.62 109.331C1109.52 110.834 1109.62 112.705 1108.92 114.945C1109.49 114.879 1110.03 114.698 1110.52 114.402C1111.8 113.638 1112.57 112.615 1112.84 111.335C1113.1 110.034 1112.89 108.828 1112.23 107.716C1111.55 106.583 1110.56 105.872 1109.27 105.583C1107.72 105.281 1106.12 105.624 1104.48 106.611C1102.83 107.597 1101.67 108.838 1101 110.332C1099.97 112.682 1100.06 114.866 1101.27 116.884C1102.27 118.552 1103.55 119.434 1105.12 119.53C1106.31 118.395 1107.25 117.074 1107.95 115.568C1106.49 115.291 1105.34 114.431 1104.47 112.99ZM1105.49 108.859C1104.87 109.229 1104.53 109.756 1104.46 110.439C1104.41 111.11 1104.62 111.837 1105.09 112.62C1105.89 113.958 1106.93 114.725 1108.19 114.919C1108.55 114.117 1108.71 113.221 1108.68 112.233C1108.65 111.245 1108.42 110.391 1107.98 109.67C1107.31 108.537 1106.47 108.267 1105.49 108.859ZM1133.94 115.606C1134.43 115.31 1134.77 114.714 1134.96 113.816L1135.65 113.909C1135.68 114.284 1135.51 114.733 1135.15 115.255C1134.8 115.778 1134.32 116.218 1133.72 116.576C1131.85 117.698 1130.41 117.415 1129.4 115.727C1128.96 115.006 1128.38 113.608 1127.64 111.532C1126.9 109.457 1126.36 108.13 1126.01 107.554C1125.48 106.668 1124.8 106.478 1123.95 106.984C1123.25 107.404 1122.86 108.284 1122.77 109.626C1122.69 110.956 1122.94 112.558 1123.5 114.431L1125.96 120.85L1122.25 123.07L1114.07 101.616C1113.49 102.048 1113.15 102.645 1113.04 103.406L1112.36 103.313C1112.53 102.202 1113.08 101.369 1114.01 100.814C1114.96 100.246 1115.83 100.045 1116.63 100.21C1117.43 100.376 1118.08 100.891 1118.6 101.756C1118.7 101.92 1118.84 102.2 1119.02 102.596L1122.1 110.694C1121.81 108.294 1122.55 106.563 1124.33 105.502C1125.54 104.775 1126.7 104.557 1127.8 104.85C1128.88 105.123 1129.79 105.867 1130.51 107.082C1130.9 107.72 1131.44 109.073 1132.15 111.14C1132.84 113.187 1133.44 114.676 1133.94 115.606ZM1132.7 101.322C1132.21 101.618 1131.87 102.215 1131.68 103.112L1130.99 103.019C1130.96 102.644 1131.13 102.196 1131.49 101.673C1131.85 101.151 1132.32 100.711 1132.92 100.353C1134.79 99.2303 1136.24 99.5134 1137.25 101.202C1137.68 101.923 1138.26 103.321 1139 105.397C1139.74 107.472 1140.28 108.798 1140.63 109.375C1141.16 110.26 1141.84 110.45 1142.69 109.945C1143.28 109.587 1143.65 108.891 1143.79 107.858C1143.95 106.812 1143.86 105.548 1143.53 104.066L1140.56 96.1531C1142.08 95.2403 1143.16 94.5124 1143.78 93.9694L1144.13 93.6362L1149.05 106.553C1149.63 106.121 1149.97 105.524 1150.07 104.763L1150.76 104.856C1150.59 105.967 1150.04 106.801 1149.11 107.356C1148.18 107.911 1147.33 108.116 1146.54 107.971C1145.76 107.827 1145.11 107.349 1144.59 106.537C1144.76 108.785 1144 110.415 1142.32 111.426C1141.1 112.154 1139.95 112.382 1138.86 112.109C1137.77 111.816 1136.85 111.062 1136.13 109.847C1135.74 109.208 1135.21 107.866 1134.51 105.819C1133.81 103.752 1133.2 102.253 1132.7 101.322ZM1156.21 91.6008C1155.52 91.4274 1154.99 91.0317 1154.62 90.4139C1154.25 89.7961 1154.15 89.1414 1154.33 88.4499C1154.49 87.7378 1154.84 87.2213 1155.37 86.9006C1155.93 86.5676 1156.48 86.4342 1157.02 86.5005C1157.57 86.5338 1158.06 86.7174 1158.48 87.0512C1158.51 87.0594 1158.54 87.0739 1158.55 87.0945L1158.57 87.1254C1159.14 87.5128 1159.73 88.2213 1160.34 89.2511C1160.95 90.2602 1161.38 91.2609 1161.64 92.2533C1161.92 93.2334 1162.07 94.3142 1162.11 95.4958C1162.15 96.6445 1161.88 97.7847 1161.3 98.9164C1160.71 100.028 1159.78 100.959 1158.53 101.712C1157.27 102.464 1155.98 102.681 1154.64 102.363C1153.32 102.033 1152.34 101.332 1151.7 100.262C1151.06 99.1907 1150.46 97.7616 1149.89 95.9744C1149.34 94.1543 1148.82 92.8097 1148.36 91.9407C1148.04 92.1586 1147.8 92.4734 1147.62 92.885C1147.44 93.276 1147.34 93.6176 1147.32 93.9099L1147.28 94.3483L1146.6 94.2552C1146.59 94.0946 1146.59 93.8949 1146.62 93.6562C1146.64 93.4174 1146.82 93.0058 1147.14 92.4215C1147.48 91.8247 1148.03 91.2982 1148.79 90.8418C1149.56 90.3854 1150.31 90.2686 1151.06 90.4915C1151.83 90.702 1152.44 91.1883 1152.9 91.9503C1153.35 92.7123 1153.86 94.0198 1154.41 95.8728C1154.94 97.7053 1155.41 98.951 1155.8 99.6101C1156.18 100.248 1156.63 100.667 1157.14 100.865C1157.67 101.05 1158.21 100.977 1158.77 100.644C1160.15 99.8171 1160.96 98.313 1161.19 96.1312C1161.42 93.9493 1160.98 91.9317 1159.87 90.0782C1159.79 89.9341 1159.64 89.7301 1159.42 89.4665C1159.31 90.261 1158.92 90.8618 1158.24 91.2688C1157.58 91.6636 1156.9 91.7742 1156.21 91.6008ZM1171.67 93.8404C1170.08 94.7903 1168.64 95.1206 1167.35 94.8314C1166.05 94.5217 1165.04 93.7696 1164.32 92.5751C1163.59 91.36 1163.08 90.2687 1162.78 89.3009C1162.49 88.3003 1162.36 87.2607 1162.38 86.182C1162.4 85.0828 1162.76 84.0106 1163.48 82.9654C1164.22 81.9079 1165.33 80.9351 1166.81 80.047C1168.31 79.1465 1169.72 78.8511 1171.02 79.1609C1172.33 79.4377 1173.4 80.266 1174.23 81.6458C1175.63 83.9936 1176.14 86.2645 1175.74 88.4585C1175.37 90.6402 1174.01 92.4342 1171.67 93.8404ZM1168.4 91.4728C1169.39 93.1203 1170.36 93.6604 1171.3 93.0929C1172.27 92.5132 1172.63 91.1775 1172.39 89.0859C1172.15 86.9613 1171.35 84.7561 1169.98 82.4701C1168.94 80.7402 1167.95 80.159 1167.01 80.7264C1166.08 81.2815 1165.7 82.5863 1165.87 84.6408C1166.04 86.6624 1166.89 88.9397 1168.4 91.4728Z" fill="#8F7CC6"/>
<rect y="-2" width="1199" height="630" fill="#AE95F8" fill-opacity="0.4"/>
</g>
<defs>
<clipPath id="clip0">
<rect width="1200" height="630" fill="white"/>
</clipPath>
<clipPath id="clip1">
<rect x="1125" y="212" width="50" height="70" fill="white"/>
</clipPath>
<clipPath id="clip2">
<rect width="88.9593" height="31.9944" transform="matrix(0.851249 -0.524762 0.524282 0.851545 766.516 531.682)" fill="white"/>
</clipPath>
<clipPath id="clip3">
<rect width="96.9388" height="50" transform="matrix(0.999957 -0.00927102 0.00925932 0.999957 68.7271 82.4504)" fill="white"/>
</clipPath>
<clipPath id="clip4">
<rect width="49.9724" height="89.9929" transform="matrix(0.935187 -0.354155 0.353763 0.935335 792.499 312.698)" fill="white"/>
</clipPath>
<clipPath id="clip5">
<rect width="142.926" height="124.985" transform="matrix(0.90234 -0.431024 0.430581 0.902552 848.514 101.899)" fill="white"/>
</clipPath>
<clipPath id="clip6">
<rect width="99.9427" height="179.989" transform="matrix(0.952383 -0.304904 0.304555 0.952495 486.693 108.473)" fill="white"/>
</clipPath>
</defs>
</svg>
